/* XPM */
static char *result[] = {
/* columns rows colors chars-per-pixel */
"40 40 176 2 ",
"   c #060506",
".  c #0B0505",
"X  c #0A0907",
"o  c #08070A",
"O  c #0C0B0A",
"+  c #130405",
"@  c #1E0404",
"#  c #130907",
"$  c #120D0B",
"%  c #1D0808",
"&  c #13110E",
"*  c #1B150E",
"=  c #060710",
"-  c #0D0D13",
";  c #0E0D1C",
":  c #130F10",
">  c #0E141A",
",  c #151313",
"<  c #191614",
"1  c #1A1817",
"2  c #16191B",
"3  c #1C1B1A",
"4  c #151419",
"5  c #2B0505",
"6  c #280A0C",
"7  c #340506",
"8  c #3A0708",
"9  c #2A1B0B",
"0  c #221E1C",
"q  c #2E1113",
"w  c #2D230A",
"e  c #27220B",
"r  c #23211F",
"t  c #2B221D",
"y  c #332B12",
"u  c #0D0C21",
"i  c #101220",
"p  c #131C23",
"a  c #141729",
"s  c #15193A",
"d  c #181A3B",
"f  c #181939",
"g  c #19232B",
"h  c #1A2A38",
"j  c #262423",
"k  c #292625",
"l  c #2B2926",
"z  c #20272A",
"x  c #20292F",
"c  c #2D2B2A",
"v  c #352423",
"b  c #322F2D",
"n  c #34312E",
"m  c #242136",
"M  c #2E2D32",
"N  c #22203C",
"B  c #363431",
"V  c #393634",
"C  c #3C3936",
"Z  c #3E3C39",
"A  c #38363E",
"S  c #440405",
"D  c #480404",
"F  c #4C1515",
"G  c #650404",
"H  c #6E0303",
"J  c #7D0405",
"K  c #442C0D",
"L  c #401F26",
"P  c #402028",
"I  c #472525",
"U  c #473C2E",
"Y  c #413C37",
"T  c #413E3B",
"R  c #4A3E3B",
"E  c #56450C",
"W  c #795A0C",
"Q  c #43413E",
"!  c #4A423D",
"~  c #5A4837",
"^  c #1C1C44",
"/  c #1D224A",
"(  c #1B2844",
")  c #1E2251",
"_  c #262F4B",
"`  c #203146",
"'  c #2C3942",
"]  c #273848",
"[  c #3E3A43",
"{  c #25295C",
"}  c #212954",
"|  c #272861",
" . c #2A4052",
".. c #2B486F",
"X. c #2C4173",
"o. c #364779",
"O. c #335972",
"+. c #3D617B",
"@. c #464341",
"#. c #494643",
"$. c #4D4946",
"%. c #4E4C49",
"&. c #48454C",
"*. c #554645",
"=. c #5F4947",
"-. c #524E4B",
";. c #504A46",
":. c #58534F",
">. c #565350",
",. c #5A5652",
"<. c #5E5A56",
"1. c #615C55",
"2. c #625E5A",
"3. c #685F5E",
"4. c #67635E",
"5. c #6B645F",
"6. c #77685F",
"7. c #72655E",
"8. c #6B6662",
"9. c #6E6964",
"0. c #726C67",
"q. c #746E6A",
"w. c #76716E",
"e. c #78706D",
"r. c #7D7673",
"t. c #8C0303",
"y. c #820504",
"u. c #940402",
"i. c #9C0404",
"p. c #970708",
"a. c #A30403",
"s. c #AA0503",
"d. c #AD0805",
"f. c #B30502",
"g. c #B90403",
"h. c #C30503",
"j. c #CD0503",
"k. c #D40402",
"l. c #DD0502",
"z. c #DA0A02",
"x. c #E60501",
"c. c #EB0502",
"v. c #EF0903",
"b. c #F10904",
"n. c #F10601",
"m. c #864E0C",
"M. c #A47311",
"N. c #877153",
"B. c #837775",
"V. c #817976",
"C. c #857D7A",
"Z. c #86807D",
"A. c #89817D",
"S. c #A38562",
"D. c #364987",
"F. c #3B548D",
"G. c #3F5C95",
"H. c #386385",
"J. c #3F6D94",
"K. c #426D8C",
"L. c #417797",
"P. c #4F7892",
"I. c #427898",
"U. c #537890",
"Y. c #477FA5",
"T. c #4A7EA2",
"R. c #6F818C",
"E. c #76828C",
"W. c #4B83A8",
"Q. c #4F89AF",
"!. c #4D81A5",
"~. c #5287AD",
"^. c #5189AF",
"/. c #8C8681",
"(. c #948E85",
"). c None",
/* pixels */
").).).).).).).).).).).).).).).).).).).).+ . ).).).).).).).).).).).).).).).).).).",
").).).).).).).).).).).).).).).).).# D y.i.i.J 7 # ).).).).).).).).).).).).).).).",
").).).).).).).).).).).).).).).).# J l.x.c.c.c.f.S O ).).).).).).).).).).).).).).",
").).).).).).).).).).).).).).).O D l.x.x.x.x.x.j.t.@ ).).).).).).).).).).).).).).",
").).).).).).).).).).).).).).).O D x.c.c.c.c.x.g.i.5 ).).).).).).).).).).).).).).",
").).).).).).).).).).).).).).).).@ p.j.k.k.j.f.u.u.@ ).).).).).).).).).).).).).).",
").).).).).).).).).).).).).).).).O S u.u.u.u.t.a.G X ).).).).).).).).).).).).).).",
").).).).).).).).).).).).).).).).).. G i.t.u.i.y.+ ).).).).).).).).).).).).).).).",
").).).).).).).).).).).).).).O & 0 n q i.u.a.H v Z b 0 $ ).).).).).).).).).).).).",
").).).).).).).).).).).).& r n Z 8.w.q i.J F T r./.C.w.<.C < ).).).).).).).).).).",
").).).).).).).).).)., j Z Q ! ! r.q.v I *.q./.C.C.A././.C.9.V $ ).).).).).).).).",
").).).).).).).).).1 C @.@.Q Q ! 3.A.r.r.C.C.V.C.C.C.C.C.C.C.C.%., ).).).).).).).",
").).).).).).).).3 Q Q Q Q T  .Q @.8.V.V.V.V.V.V.C.C.C.C.C.V.C.V.Y & ).).).).).).",
").).).).).).).& Z Q Z Z Z T Z Z [ T -.2.9.q.r.r.r.r.r.r.V.V.C.q.! n O ).).).).).",
").).).).).).$ c Q Z Z Z Z Z Z Z C Z Z T T #.%.>.<.2.8.9.8.8.<.#.Q  .r X ).).).).",
").).).).).).O Z T C C V Z V V Z C Z Z Z Z Z C Z Z Z Z Z Z Z Z T T Q n O ).).).).",
").).).).).).X Q Z C V C V V V V C Z Z V V Y V Y V Y Y C Z Y Y Y Z Q n X ).).).).",
").).).).).).X Z C B B B V V V V V V V V C C C V V V C C V V V Z C Z n X ).).).).",
").).).).).O O n Z B B B V V V V V V V V V V V V V V V V V V V C C Z n o O ).).).",
").).).).).O 3 c Y B B B B B B B B B V V B V B V V V V V V V V V V T c 0 O ).).).",
").).).).).O j r Q B B n B B n B M V B V B V V V V V V B V B B V B Q r j & ).).).",
").).).).).$ 4 3 Q n n B V B B b B B B B B B n n n n B B B B B B B ! 1 1 O ).).).",
").).).).).).O O T B B B B b b b b b b b b n n n n n B b b B M b B Y O O ).).).).",
").).).).).).).$ T V n n n b b b b b b b b n n b b b b b b b b n B C O ).).).).).",
").).).).).).).& c ! V b b b b b b b b b b n b M b b b b b b b B Y c O ).).).).).",
").).).).).).).).< 0 C Q V n n b n b b b n n b n n n b b b B Y B 3 & ).).).).).).",
").).).).).).O , B j O 0 V Y Y C B n b b b n n n B n Y Y Y V 0 . ).).).).).).).).",
").).).).O 3 Z $.8.>.c >.B , j c V Y Y Y Y Y Z Y Y V b k < Y -.c & ).).).).).).).",
").).)., -.9.%.3 3 $.0.4.n 3 j O f _ z 2 1 3 z ' _ f , l 3 V 8.0.Q < ).).).).).).",
").).X c (.V 2 O C 9.8.Q j j c 3 { G.!.K.O.K.T.~.F./ 1 c 3 l $.8.5.n O ).).).).).",
").).X j (.Z O ` ] ' M k 3 j l , / F.^.^.^.Q.Q.~.D.f 3 k 3 3 j M ' ] p & ).).).).",
").).)., A.:.O O.J...^ d ; c C j N o.Y.W.W.W.W.T.o.g k V j u s / ` g E W e ).).).",
").).).  <.0.2 H.X.d ^ f - M &.A R B.R.U.I.I.U.E.V.B [ &.j = s ^ - , K W w ).).).",
").).).  l A.c ( } ) { a o , V b j R 0.*.L L =.7.Y j b B < 9 m | ^ i - < ).).).).",
").).).).X ,.1., - c 2 ).).< T >.Z 3 7 s.l.z.d.S 3 @.:.Q < m.M.y ; : ).).).).).).",
").).).).)., 1.;.c Q < ).).O V Q j 5 s.n.n.n.n.j.8 k Q b o w E 9 ).).).).).).).).",
").).).).).)., C l < ).).).$ c $.0 J j.c.n.c.c.b.u.0 #.j t ).).).).).).).).).).).",
").).).).).).).).).).).).).$ i h 6 p.s.l.v.n.c.c.a.% h 2 ~ S.).).).).).).).).).).",
").).).).).).).).).).).).).).).2 % p.a.s.g.h.h.f.y.# c U N.).).).).).).).).).).).",
").).).).).).).).).).).).).).).).< 7 J i.s.a.p.J 7 * ).).).).).).).).).).).).).)."
};
