/* XPM */
static char *result[] = {
/* columns rows colors chars-per-pixel */
"40 40 216 2 ",
"   c #0B0907",
".  c #0D0B0A",
"X  c #070708",
"o  c #120E0B",
"O  c #1C0606",
"+  c #14110E",
"@  c #1F150F",
"#  c #0E1113",
"$  c #151313",
"%  c #191513",
"&  c #1C1916",
"*  c #14131A",
"=  c #1D1B19",
"-  c #15191B",
";  c #080A16",
":  c #250904",
">  c #370805",
",  c #27190D",
"<  c #3C170E",
"1  c #211E1D",
"2  c #291F1D",
"3  c #211D12",
"4  c #24211E",
"5  c #2C231B",
"6  c #2C2614",
"7  c #36251C",
"8  c #0F1220",
"9  c #141727",
"0  c #1B1A39",
"q  c #1D262D",
"w  c #1D2733",
"e  c #252321",
"r  c #292624",
"t  c #2B2926",
"y  c #2E2B2A",
"u  c #26252B",
"i  c #332A23",
"p  c #312D2B",
"a  c #3C2823",
"s  c #35322E",
"d  c #3E3228",
"f  c #2A333B",
"g  c #363330",
"h  c #3A3632",
"j  c #3D3935",
"k  c #3C3B3B",
"l  c #272D32",
"z  c #4A1405",
"x  c #571808",
"c  c #581211",
"v  c #53100B",
"b  c #660404",
"n  c #611F07",
"m  c #44391C",
"M  c #452C11",
"N  c #6B2608",
"B  c #683115",
"V  c #712908",
"C  c #4D2D29",
"Z  c #44342B",
"A  c #4B3529",
"S  c #413E39",
"D  c #593E33",
"F  c #52342A",
"G  c #6D3A37",
"H  c #5A4A0C",
"J  c #4D420E",
"K  c #764F12",
"L  c #756306",
"P  c #45413D",
"I  c #49433F",
"U  c #584537",
"Y  c #524723",
"T  c #674A37",
"R  c #7B543D",
"E  c #6E482D",
"W  c #1D1C44",
"Q  c #1C2045",
"!  c #23224E",
"~  c #373B41",
"^  c #242758",
"/  c #223849",
"(  c #292A63",
")  c #2D2D6D",
"_  c #323A6F",
"`  c #3D4247",
"'  c #344B59",
"]  c #385467",
"[  c #30476F",
"{  c #474441",
"}  c #4B4642",
"|  c #4E4A45",
" . c #4E4A4A",
".. c #514B45",
"X. c #534E49",
"o. c #584A42",
"O. c #54514D",
"+. c #5A544E",
"@. c #5C5651",
"#. c #5D5953",
"$. c #565051",
"%. c #454C58",
"&. c #674646",
"*. c #775647",
"=. c #635C56",
"-. c #655E5A",
";. c #7A6044",
":. c #66615B",
">. c #6B635D",
",. c #475B68",
"<. c #4B667B",
"1. c #576976",
"2. c #536B74",
"3. c #6B6462",
"4. c #736C65",
"5. c #726C6B",
"6. c #75726B",
"7. c #7D746D",
"8. c #69747C",
"9. c #777675",
"0. c #696D74",
"q. c #9A0404",
"w. c #8F0606",
"e. c #A80504",
"r. c #BB0502",
"t. c #D90603",
"y. c #C20704",
"u. c #ED0602",
"i. c #E10502",
"p. c #F00502",
"a. c #935510",
"s. c #9A7E07",
"d. c #A5620C",
"f. c #855E4C",
"g. c #975D57",
"h. c #895754",
"j. c #A15F59",
"k. c #88684D",
"l. c #92744D",
"z. c #866555",
"x. c #997559",
"c. c #8D714D",
"v. c #B4675D",
"b. c #A0785C",
"n. c #887569",
"m. c #9B7161",
"M. c #837C74",
"N. c #8C7C73",
"B. c #867C76",
"V. c #BD6E64",
"C. c #A57962",
"Z. c #BA7165",
"A. c #CB786C",
"S. c #B0880C",
"D. c #A7865C",
"F. c #8D847C",
"G. c #84827C",
"H. c #90867C",
"J. c #92897F",
"K. c #A48663",
"L. c #D68775",
"P. c #DA987E",
"I. c #C39175",
"U. c #E88979",
"Y. c #3D4D89",
"T. c #445D95",
"R. c #4D7088",
"E. c #5C768A",
"W. c #4C7896",
"Q. c #587C96",
"!. c #456991",
"~. c #667A87",
"^. c #4E76A2",
"/. c #51819F",
"(. c #7A848B",
"). c #6A8698",
"_. c #708A9A",
"`. c #5A86A3",
"'. c #6E98B5",
"]. c #78A4C4",
"[. c #8E8A83",
"{. c #898988",
"}. c #928A82",
"|. c #968F8A",
" X c #96918A",
".X c #9B948C",
"XX c #999896",
"oX c #848E93",
"OX c #A09288",
"+X c #B1A89B",
"@X c #AFA899",
"#X c #AEACA7",
"$X c #B7B6B4",
"%X c #B3B1AB",
"&X c #EC9783",
"*X c #F29B86",
"=X c #D7A080",
"-X c #E2A384",
";X c #E8AB8B",
":X c #F6A28A",
">X c #F4A186",
",X c #F8BA96",
"<X c #EBB497",
"1X c #C4BEB2",
"2X c #FFC098",
"3X c #CDC7BD",
"4X c #D7C7BC",
"5X c #8FB3CA",
"6X c #CDC9C0",
"7X c #D0CEC7",
"8X c #DAD6CD",
"9X c #DAD9D0",
"0X c #E7D2C7",
"qX c #E5E4DD",
"wX c #FDE7DB",
"eX c None",
/* pixels */
"eXeX  e #.S p o eXeXeX$ ..=.u b r.u.u.u.u.p.t.> P =.g * eXeXeXeXeXeXeXeXeXeXeXeX",
"eXeXeXeX$ $ eXeXeXeXeX. q l O w.r.u.p.u.p.p.u.b - f # Z K.eXeXeXeXeXeXeXeXeXeXeX",
"eXeXeXeXeXeXeXeXeXeXeXeX9 9 : e.q.r.t.t.i.t.r.b . w 4 ;.K.eXeXeXeXeXeXeXeXeXeXeX",
"eXeXeXeXeXeXeXeXeXeXeXeXeXeXo b q.e.e.e.e.e.w.> % T eXeXeXeXeXeXeXeXeXeXeXeXeXeX",
"eXeXeXeXeXeXeXeXeXeXeXeXeXeXeX  : > c c c > O . eXeXeXeXeXeXeXeXeXeXeXeXeXeXeXeX",
"eXeXeXeXeXeXeXeXeXeXeXeX. o & s k $ | @.O.* P h r - eXeXeXeXeXeXeXeXeXeXeXeXeXeX",
"eXeXeXeXeXeXeXeXeX. 1 r g S >.H.B. .j k k #.}.}.B.6.+.h & eXeXeXeXeXeXeXeXeXeXeX",
"eXeXeXeXeXeXeX. 2 S X...| ..B.J.}.}.B.B.F.F.J.J.}.}.}.F.5.S $ eXeXeXeXeXeXeXeXeX",
"eXeXeXeXeXeX$ j @.X.I } { | :.F.F.H.F.F.F.F.F.F.H.H.H.F.}.H.-.1 . eXeXeXeXeXeXeX",
"eXeXeXeXeX+ P +.I I I I I { P ..:.>.>.4.4.7.B.G.F.F.F.F.F.F.J.+.4 . eXeXeXeXeXeX",
"eXeXeXeX. h | P P P P P k g p s P O.=.I >.#.O.X.=.4.B.F.J.H.H.+.| t . eXeXeXeXeX",
"eXeXeXeX& I P P j P s y j #.M.[.}. X9.O. X X|.}.6.+.I ..-.-.+.I I #.% eXeXeXeXeX",
"eXeXeX. r P k j s t | 9. X}.9.h 3 k #.s =.t 1 #.}..X}.4.S r h I P #.4 eXeXeXeXeX",
"eXeXeX  r S g e I 9.[.#.s O.#.3 . s +.h =.% o h :.{ j B..X4.s p P X.t . eXeXeXeX",
"eXeXeX. $ e 1 -.7.#.#.5   S #.&   s O.h @.3 . S 3.e   } -.-.M.{ 4 s % + eXeXeXeX",
"eXeXeXo h g e :.s + | s & I #.I h X.O.s =.I h X.=.g & ..S - $.O.1 | r . eXeXeXeX",
"eXeXeX= =.-.1 h P p +.=.=.=.=.=.=.=...g @.=.=.=.-.=.$.=...h #.r j 4.+.o eXeXeXeX",
"eXeXeX& $.-.t e } S h A 7 7 T f.x.b.C.b.k.z.x.*.D 5 Z Z j I { $ | >.| o eXeXeXeX",
"eXeXeXo g } & e j * : n V N B G R E C.,Xf.E R E B B V n : 4 j = y | e + eXeXeXeX",
"eXeXeXeX. - r @.=.& , C M z n n V z &.,XC x N N x x M F o r >.| 4 $ . eXeXeXeXeX",
"eXeXeXeXo 1 j #.=.1 2 |.$X$.O , < : *.,XA > < , % 9.$X9.% p >.X.s $ eXeXeXeXeXeX",
"eXeXeXeX+ $ g =.>.p D m.N.B.o.} &.f.P.2XK.*.&...&.N.n.m.Z S >...y . eXeXeXeXeXeX",
"eXeXeXeXeX. + g =.} a L.*X&X;X;X,X,X=XI.;X2X,X<X;X-X*XV.2 +.+.t + eXeXeXeXeXeXeX",
"eXeXeXeXeXeXeXo + p $ G A.A.&X*X>X>XL.A.P.:X:X*X*XA.v.C 1 t % % eXeXeXeXeXeXeXeX",
"eXeXeXeXeXeXeXeXr p S ..2 a &.g.j.v.A.A.V.v.j.h.&.7 i  .h s &   4 X.h p 3 eXeXeX",
"eXeXeXeXeXeX4 | +.=.n.4.= * ^ !.W.R.,.,.<.R.W.!.W * t 4.X.r j 5..X8.` :.>.= eXeX",
"eXeXeX7 H 4 I ..+.4.7...e e ! ^.Q.~.~.0.8.E.^.T.W p 2 y + {.%XoX)./.,.,.4.t eXeX",
"eXeX, a.7 9 e t } =.-.u g y W T.!.8.oXXX(.1.W.Y.0 S p . 1 3X[.W.].'.` ' #.e eXeX",
"eXeXeX, 9 ^ ^ ' ' w 5 H m 1 0 Y.W.(.0XwX4X~.^._ 9 h p X $ $X#X_.5X).L t :.4 eXeX",
"eXeXeX% 0 ) ( [ ~ K d.s.L o t 5.~.R.~.oXE.E.~.3.r $. .# X G.7X1.'.<.S.6 :.1 eXeX",
"eXeXeXeX9 ( ! 7 a.a.T F.5.e & o.N.OXoX(.|.|.7.D 2 u r - X j 3X9.`.).Y y | + eXeX",
"eXeXeXeXeX* 5 S.a.d [.1X9X#X} r * ~ 3.B.=.~ * } +.S h * X . XX$X8.`./ k s eXeXeX",
"eXeXeXeXeXeX@ J m 4 | G.@X3X7XXX` %.] ] 2.9.g t s 4 4 + eX. r  X6.] f { & eXeXeX",
"eXeXeXeXeXeXeXeXeXeXU 5 4.@X3X9X7XF.>.F.B.U p | | y = $ eXeXX r 4.#.P t eXeXeXeX",
"eXeXeXeXeXeXeXeXeXD.k.+ 8 k 7.@X6XqX$XP i A $ u f w ; 5 l.eXeX. 1 s & eXeXeXeXeX",
"eXeXeXeXeXeXeXeXeXeXl.U r = 6 ..F.8XqX{.7 c.U i l l i T x.eXeXeXeXeXeXeXeXeXeXeX",
"eXeXeXeXeXeXeXeXeXeXeXeXeXeXR 5 y +.6.G.= T D.l.;.eXeXeXeXeXeXeXeXeXeXeXeXeXeXeX",
"eXeXeXeXeXeXeXeXeXeXeXeXeXeXeXeXeXeXeXeXeXeXeXeXeXeXeXeXeXeXeXeXeXeXeXeXeXeXeXeX",
"eXeXeXeXeXeXeXeXeXeXeXeXeXeXeXeXeXeXeXeXeXeXeXeXeXeXeXeXeXeXeXeXeXeXeXeXeXeXeXeX",
"eXeXeXeXeXeXeXeXeXeXeXeXeXeXeXeXeXeXeXeXeXeXeXeXeXeXeXeXeXeXeXeXeXeXeXeXeXeXeXeX"
};
