/* XPM */
static char *result[] = {
/* columns rows colors chars-per-pixel */
"40 40 187 2 ",
"   c #070606",
".  c #0A0605",
"X  c #0B0906",
"o  c #0D0B0B",
"O  c #150505",
"+  c #130907",
"@  c #120D0C",
"#  c #1F0607",
"$  c #13100E",
"%  c #1B1A07",
"&  c #0D0C15",
"*  c #0E0E1C",
"=  c #151312",
"-  c #1A1615",
";  c #1B1917",
":  c #14151A",
">  c #1C1A1A",
",  c #191718",
"<  c #2D0506",
"1  c #240908",
"2  c #370605",
"3  c #390708",
"4  c #29160A",
"5  c #3C1B0E",
"6  c #34170D",
"7  c #211E1C",
"8  c #2B1917",
"9  c #321E1C",
"0  c #3E1A15",
"q  c #262115",
"w  c #22201E",
"e  c #2C201D",
"r  c #322619",
"t  c #0C0E20",
"y  c #141425",
"u  c #181D28",
"i  c #1A1C32",
"p  c #1B1B3C",
"a  c #171B34",
"s  c #17252F",
"d  c #162936",
"f  c #1A2936",
"g  c #262322",
"h  c #292523",
"j  c #2E2926",
"k  c #2D2B2A",
"l  c #312423",
"z  c #312D2A",
"x  c #312C24",
"c  c #35312E",
"v  c #39332F",
"b  c #2D2E39",
"n  c #2E333D",
"m  c #363331",
"M  c #393533",
"N  c #3C3936",
"B  c #3E3A39",
"V  c #430506",
"C  c #540607",
"Z  c #431406",
"A  c #471B0C",
"S  c #531603",
"D  c #660505",
"F  c #730404",
"G  c #790404",
"H  c #631E04",
"J  c #412D09",
"K  c #58240B",
"L  c #4A281B",
"P  c #532F13",
"I  c #662509",
"U  c #462925",
"Y  c #482927",
"T  c #4F3421",
"R  c #413D3A",
"E  c #413735",
"W  c #573331",
"Q  c #58382D",
"!  c #4B420C",
"~  c #5B500E",
"^  c #6E4E0C",
"/  c #44413E",
"(  c #4A4334",
")  c #53423E",
"_  c #5B4337",
"`  c #604236",
"'  c #784F3E",
"]  c #1D1E44",
"[  c #1E2148",
"{  c #212545",
"}  c #3A3E43",
"|  c #2D2D6A",
" . c #2B326E",
".. c #29445A",
"X. c #2D4D64",
"o. c #2C536B",
"O. c #2F4273",
"+. c #314D73",
"@. c #325778",
"#. c #454341",
"$. c #4A4642",
"%. c #4D4945",
"&. c #484848",
"*. c #514B46",
"=. c #524E4A",
"-. c #55514D",
";. c #5D544B",
":. c #555351",
">. c #5A5651",
",. c #5D5955",
"<. c #5F5D5A",
"1. c #4A545C",
"2. c #605248",
"3. c #7F5744",
"4. c #615B56",
"5. c #635E5A",
"6. c #66615C",
"7. c #6A635F",
"8. c #515A63",
"9. c #656361",
"0. c #6A6561",
"q. c #6E6A65",
"w. c #6F6D6A",
"e. c #726B67",
"r. c #736E6A",
"t. c #796F6B",
"y. c #75716B",
"u. c #7A736D",
"i. c #7D7671",
"p. c #7F7A72",
"a. c #7E7D7A",
"s. c #840405",
"d. c #8D0503",
"f. c #950404",
"g. c #9B0403",
"h. c #A90504",
"j. c #A00504",
"k. c #B30503",
"l. c #BC0503",
"z. c #C50503",
"x. c #EB0602",
"c. c #E40703",
"v. c #B45B0E",
"b. c #80670E",
"n. c #9D6D0A",
"m. c #9C7509",
"M. c #C9690C",
"N. c #875A4D",
"B. c #945C50",
"V. c #8C604E",
"C. c #946A57",
"Z. c #AB645C",
"A. c #827A75",
"S. c #867E7A",
"D. c #C08B09",
"F. c #86827C",
"G. c #8A827E",
"H. c #8D887F",
"J. c #B9856D",
"K. c #B98970",
"L. c #C08D72",
"P. c #CB9478",
"I. c #395684",
"U. c #3F618A",
"Y. c #456F9B",
"T. c #42759A",
"R. c #8C8481",
"E. c #8D8A82",
"W. c #858383",
"Q. c #938D87",
"!. c #96938E",
"~. c #99928B",
"^. c #A5A29E",
"/. c #A9A7A3",
"(. c #ACAAA7",
"). c #B0ADA6",
"_. c #BBB7B0",
"`. c #E7A487",
"'. c #FFB997",
"]. c #F8B593",
"[. c #C9C5BD",
"{. c #C5C2BC",
"}. c #CECAC3",
"|. c #D0CEC5",
" X c #D4D2CB",
".X c #D8D5CE",
"XX c None",
/* pixels */
"XXXXXXXXXXXXXXXXXXXXXXXXXXXXXXXXXXXXXXXXXXXXXXXXXXXXXXXXXXXXXXXXXXXXXXXXXXXXXXXX",
"XXXXXXXXXXXXXXXXXXO 2 F d.d.G C 1 XXXXXXXXXXXXXXXXXXXXXXXXXXXXXXXXXXXXXXXXXXXXXX",
"XXXXXXXXXXXXXXX < F h.x.x.x.x.c.h.3 XXXXXXXXXXXXXXXXXXXXXXXXXXXXXXXXXXXXXXXXXXXX",
"XXXXXXXXXXXXXX# d.f.l.x.x.x.x.x.x.h.+ XXXXXXXXXXXXXXXXXXXXXXXXXXXXXXXXXXXXXXXXXX",
"XXXXXXXXXXXXX C g.f.g.z.c.c.x.c.c.k.# XXXXXXXXXXXXXXXXXXXXXXXXXXXXXXXXXXXXXXXXXX",
"XXXXXXXXXXXX  G g.d.d.g.g.k.k.k.h.G O XXXXXXXXXXXXXXXXXXXXXXXXXXXXXXXXXXXXXXXXXX",
"XXXXXXXXXXXXO f.g.G V G g.g.j.g.F < XXXXXXXXXXXXXXXXXXXXXXXXXXXXXXXXXXXXXXXXXXXX",
"XXXXXXXXXX. 2 h.g.D + r 0 3 L Y z   XXXXXXXXXXXXXXXXXXXXXXXXXXXXXXXXXXXXXXXXXXXX",
"XXXXXXXXXX< g.g.D # k ( j $ #.&.B g / #.R m z 7 = XXXXXXXXXXXXXXXXXXXXXXXXXXXXXX",
"XXXXXXXXX V C 6 @ = k M R m c %.5.A.R.R.R.R.G.A.e.>.M > XXXXXXXXXXXXXXXXXXXXXXXX",
"XXXXXXXXXXXXXX= z $.%.$./ *.u.G.G.G.W.R.R.G.G.R.R.R.R.t.&.> XXXXXXXXXXXXXXXXXXXX",
"XXXXXXXXXXXX@ R ;.$.R $.) q.G.A.A.S.S.S.S.S.F.F.G.F.S.R.G.r.k o XXXXXXXXXXXXXXXX",
"XXXXXXXXXXX c >./ / / / $.A.S.A.A.A.A.A.A.A.A.A.A.A.A.F.S.S.i.h X XXXXXXXXXXXXXX",
"XXXXXXXXXX$ >.$.#./ / R / A.A.i.A.i.A.A.A.A.A.A.A.A.i.r.5.:.$.z $ $ XXXXXXXXXXXX",
"XXXXXXXX  h ;.B B R R R / 4.A.i.i.i.i.i.u.y.e.7.4.$.M m N =.0.a.G./ . XXXXXXXXXX",
"XXXXXXXXX z =.B B B R R R E *.4.7.5.,.:.-.$.M k c %.q.W.~.Q.t.0.y.,.& XXXXXXXXXX",
"XXXXXXXXX c *.M M B M N N B B B E } R M j k $.q.F.F.7.6.7.$.$ o #.,.> o XXXXXXXX",
"XXXXXXXX  k *.M M M M M B M j w g h h k -.y.q.,.<.%.o 7 :.$.$ X M <.k o XXXXXXXX",
"XXXXXXXXXX7 *.M M M M B M > w $.&.M , =.0.,.h = -.%.$ ; -.=.; @ M ,.z X XXXXXXXX",
"XXXXXXXXXX= *.M v M v B h > =.5.5.0.B 7 :.>.E g -.,.%.%.,.<.-.*.>.>.h X XXXXXXXX",
"XXXXXXXXXXo *.M M m v M h 7 / ;.5.6.M - &.=.:.;.-.-.;.;.;.;.;.v h g = XXXXXXXXXX",
"XXXXXXXXXXo *.M m m M N c ; h M E m - w z h @ A K 5 P ' N.V.J.8 XXXXXXXXXXXXXXXX",
"XXXXXXXXXXo *.M M M M v M z h 7 w w m -.5.#.O Z S S I I I 6 N.+ XXXXXXXXXXXXXXXX",
"XXXXXXXXXX@ *.M M z m m c M c c m M >.5.5.#.g W.i._ 5 3 S 4 Q + XXXXXXXXXXXXXXXX",
"XXXXXXXXXX= *.B v v v c v c c v N v %.5.5.=.- 7./.(.9.g 9 ` 3.+ XXXXXXXXXXXXXXXX",
"XXXXXXXXXX@ w k c M N M m m c c z m M :.5.4.h C.P.J.K.K.P.`.N.X XXXXXXXXXXXXXXXX",
"XXXXXXXXXXXXXXXXXX= = ; w g h k z j k m *.>.M _ ].'.'.`.B.U @ X XXXXXXXXXXXXXXXX",
"XXXXXXXXXXXXXXXXXXXXXXXXo * * 8 U Y 9 $ = e 9 U Z.Z.N.W R w.5.&.m ; o XXXXXXXXXX",
"XXXXXXXXXXXXXXXXXXXXXXXXo [ p ; h 8 h $.4.x l E k i @.u E <.r.a.!.^.j XXXXXXXXXX",
"XXXXXXXXXXXXXXXXXXXXXXXXXX] p ; 7 h $.5.i.*.g %.M a Y.s > k M m $.{.M XXXXXXXXXX",
"XXXXXXXXXXXXXXXXXXXXXXXXXX] p - - $.$.0.t.6.> N B y U.d s s b c w.).> XXXXXXXXXX",
"XXXXXXXXXXXXXXXXXXXXXXXXXXp a & - N c *.-.B ! ~ 8 & o.d o.X.: k /.q.. XXXXXXXXXX",
"XXXXXXXXXXXXXXXXXXXXXXXXXXy > % y ] { X...r D.b.E $.1...1.8.&.:.a.:.#.XXXXXXXXXX",
"XXXXXXXXXXXXXXXXXXXXXXXXXX- ^ m.i |  .T.@.L M.T /.[.[._.}. X|.|. X.X X(.9.; XXXX",
"XXXXXXXXXXXXXXXXXXXXXXXXXXo 5 ^ : |  .I.@.r v.P 6.p.C.p.H.H.p.H.A.E.!.q./ XXXXXX",
"XXXXXXXXXXXXXXXXXXXXXXXXXXXX  $ o y p b s - n.m.4 k *.> %./ - ; XXXXXXXXXXXXXXXX",
"XXXXXXXXXXXXXXXXXXXXXXXXXXXXXXXXo g N *.*.h q r X ; *.g / 7 XXXXXXXXXXXXXXXXXXXX",
"XXXXXXXXXXXXXXXXXXXXXXXXXXXXXXXXX & s b n : s f o XXXXXXXXXXXXXXXXXXXXXXXXXXXXXX",
"XXXXXXXXXXXXXXXXXXXXXXXXXXXXXXXXXX& t y u & & XXXXXXXXXXXXXXXXXXXXXXXXXXXXXXXXXX",
"XXXXXXXXXXXXXXXXXXXXXXXXXXXXXXXXXXXXXXXXXXXXXXXXXXXXXXXXXXXXXXXXXXXXXXXXXXXXXXXX"
};
