/* XPM */
static char *result[] = {
/* columns rows colors chars-per-pixel */
"40 40 187 2 ",
"   c #040204",
".  c #090605",
"X  c #0C0806",
"o  c #0E0C0B",
"O  c #08080A",
"+  c #140707",
"@  c #1C0506",
"#  c #1A0A07",
"$  c #120C0B",
"%  c #170E09",
"&  c #13110E",
"*  c #0C0C14",
"=  c #070813",
"-  c #0D141C",
";  c #161413",
":  c #191513",
">  c #1B1917",
",  c #1D1B1A",
"<  c #220A08",
"1  c #290806",
"2  c #3B1509",
"3  c #231413",
"4  c #211E1C",
"5  c #2B1A19",
"6  c #2D0F0B",
"7  c #272007",
"8  c #312B0B",
"9  c #3A3208",
"0  c #24211E",
"q  c #34221F",
"w  c #0E1B26",
"e  c #1C1D21",
"r  c #121C2A",
"t  c #1D2F3B",
"y  c #262322",
"u  c #292524",
"i  c #2C2927",
"p  c #2E2C2A",
"a  c #24242C",
"s  c #322E2B",
"d  c #372925",
"f  c #35312E",
"g  c #39332E",
"h  c #282E38",
"j  c #373331",
"k  c #3A3633",
"l  c #3D3936",
"z  c #3E3C39",
"x  c #37373C",
"c  c #410505",
"v  c #480708",
"b  c #530405",
"n  c #531707",
"m  c #670607",
"M  c #750504",
"N  c #493F0B",
"B  c #42241A",
"V  c #422616",
"C  c #542812",
"Z  c #4A321D",
"A  c #492C0B",
"S  c #63270D",
"D  c #652206",
"F  c #673713",
"G  c #4B362B",
"H  c #413D3B",
"J  c #423F36",
"K  c #523230",
"L  c #5A342A",
"P  c #58470F",
"I  c #785F1D",
"U  c #44413D",
"Y  c #545138",
"T  c #534A38",
"R  c #654536",
"E  c #747335",
"W  c #1C3142",
"Q  c #253847",
"!  c #223655",
"~  c #2E404D",
"^  c #284458",
"/  c #374957",
"(  c #2A426B",
")  c #314D60",
"_  c #3A576A",
"`  c #355774",
"'  c #3F6274",
"]  c #4A4642",
"[  c #4D4A45",
"{  c #4F4D49",
"}  c #464847",
"|  c #544C45",
" . c #524E4B",
".. c #55524D",
"X. c #59534E",
"o. c #434F5A",
"O. c #43535A",
"+. c #415056",
"@. c #575452",
"#. c #5A5652",
"$. c #5C5954",
"%. c #5E5C5A",
"&. c #52565A",
"*. c #7F4B47",
"=. c #62544D",
"-. c #795143",
";. c #625A54",
":. c #625E5A",
">. c #70644C",
",. c #66615C",
"<. c #6A645E",
"1. c #5F6C60",
"2. c #496678",
"3. c #666662",
"4. c #6B6662",
"5. c #6E6863",
"6. c #726A65",
"7. c #736D69",
"8. c #76726C",
"9. c #7A736D",
"0. c #63737C",
"q. c #7D7671",
"w. c #7D7874",
"e. c #8D0403",
"r. c #810606",
"t. c #920403",
"y. c #9C0403",
"u. c #A20403",
"i. c #AC0503",
"p. c #BA0403",
"a. c #C50402",
"s. c #D40502",
"d. c #DA0502",
"f. c #EC0501",
"g. c #E50502",
"h. c #99751B",
"j. c #B67E0A",
"k. c #82584A",
"l. c #985C53",
"z. c #8A614D",
"x. c #837C75",
"c. c #857D7A",
"v. c #887F7A",
"b. c #AF7C66",
"n. c #AB8A07",
"m. c #918730",
"M. c #86817C",
"N. c #8A827D",
"B. c #BE856E",
"V. c #C49177",
"C. c #C99475",
"Z. c #385581",
"A. c #4E6D80",
"S. c #426D8E",
"D. c #547385",
"F. c #657783",
"G. c #6E8A99",
"H. c #4E84A9",
"J. c #5282A2",
"K. c #538DB6",
"L. c #5D90B0",
"P. c #658FAD",
"I. c #6790AA",
"U. c #6B9CBB",
"Y. c #7BA8C2",
"T. c #8D8581",
"R. c #8C8B84",
"E. c #948C85",
"W. c #949189",
"Q. c #828F97",
"!. c #919495",
"~. c #A49D94",
"^. c #ACABA4",
"/. c #ABA9A6",
"(. c #B2AFA7",
"). c #B9B3AB",
"_. c #BDB8AE",
"`. c #BBB8B1",
"'. c #DCA486",
"]. c #EDA488",
"[. c #FFB896",
"{. c #C0B9B0",
"}. c #C6C3BB",
"|. c #D5D4CE",
" X c #D9D8D1",
".X c #CAC8C2",
"XX c None",
/* pixels */
"XXXXXXXXXXXXXXXXXXXXXXXXXXXXXXXXXXXXXXXXXXXXXXXXXXXX$ < 1 1 # XXXXXXXXXXXXXXXXXX",
"XXXXXXXXXXXXXXXXXXXXXXXXXXXXXXXXXXXXXXXXXXXXXXXX% c r.p.a.p.e.v @ XXXXXXXXXXXXXX",
"XXXXXXXXXXXXXXXXXXXXXXXXXXXXXXXXXXXXXXXXXXXXXX& b s.f.f.f.f.g.u.m < XXXXXXXXXXXX",
"XXXXXXXXXXXXXXXXXXXXXXXXXXXXXXXXXXXXXXXXXXXXXX# i.f.f.f.f.f.d.y.y.m X XXXXXXXXXX",
"XXXXXXXXXXXXXXXXXXXXXXXXXXXXXXXXXXXXXXXXXXXXXX+ e.s.d.d.s.p.u.t.y.t.+ XXXXXXXXXX",
"XXXXXXXXXXXXXXXXXXXXXXXXXXXXXXXXXXXXXXXXXXXXXX$ b y.u.i.y.y.e.M t.u.1 XXXXXXXXXX",
"XXXXXXXXXXXXXXXXXXXXXXXXXXXXXXXXXXXXXXXXXXXXXXXX$ 2 m M M m 6 c t.u.v O XXXXXXXX",
"XXXXXXXXXXXXXXXXXXXXXXXXXXXXXXXXXXXXXXXX; > > , o z { H o T >.< m u.t.@ XXXXXXXX",
"XXXXXXXXXXXXXXXXXXXXXXXXXXXXXXXXe f ] %.5.7.9.q.$.H j i y s g , + v r.m X XXXXXX",
"XXXXXXXXXXXXXXXXXXXXXXXXXXo p #.9.N.T.T.T.T.T.N.T.v.q.#.] ] U H y ; 3 < $ XXXXXX",
"XXXXXXXXXXXXXXXXXXXXXXXX> ..x.T.T.v.v.T.N.N.c.v.v.c.N.v.@.U ] ]  .l % XXXXXXXXXX",
"XXXXXXXXXXXXXXXXXXXXXX; :.N.M.M.c.c.c.c.c.c.x.x.c.x.x.v.6.U U U ] X.k X XXXXXXXX",
"XXXXXXXXXXXXXXXXXXXX  i ,.5.9.w.x.c.x.x.x.x.x.x.q.x.x.v.9.U U H H U $.> XXXXXXXX",
"XXXXXXXXXXXXXXXXXXy ,.@.} z l U ..,.6.9.9.x.9.x.9.9.9.v.;.H H H H H ..g . XXXXXX",
"XXXXXXXXXXXXXXXX. ] T.R.R.W.M.<.] f s H  .#.:.4.7.7.6.@.H H H H l l U U   XXXXXX",
"XXXXXXXXXXXXXXXXo  . ., 0 #.8.q.M.N.4.U i s l H ] H l H H H l l l l U U . XXXXXX",
"XXXXXXXXXXXXXXXX; #.U o & | ..> 0 :.7.7.7.{ p p p i u j l H H j l j U U   XXXXXX",
"XXXXXXXXXXXXXXXX; #.H $ > ..[ % 4 @.z 4 ..5.%.> y l k 4 u x l H j j ] g . XXXXXX",
"XXXXXXXXXXXXXXXX; ....] { $.;.U [ #.k y  .#.f u $.:.:.H ; s k k l j ] u   XXXXXX",
"XXXXXXXXXXXXXXXXO y f H T X.;.;.#.#.#.@.....y p :.:.@.H ; s k g j g | 0 XXXXXXXX",
"XXXXXXXXXXXXXXXXXXXXXX3 b.l.z.R B V C 6 , p , > j U k 4 , f g k j f ] 0 XXXXXXXX",
"XXXXXXXXXXXXXXXXXXXXXX& R V S S D D n 6 y $...j 0 4 4 u s s s j j f ] 0 XXXXXXXX",
"XXXXXXXXXXXXXXXXXXXXXX$ L 6 n 2 B =.N.@.i :.:.$.J f f f f s s f j g ] 0 XXXXXXXX",
"XXXXXXXXXXXXXXXXXXXXXX$ *.R q p c./.E.d x :.:...s k f f s f f f g j ] 0   XXXXXX",
"XXXXXXXXXXXXXXXXXXXXXXo k.'.C.C.V.V.C.G { <.$.z f k f f j k k k g i y & XXXXXXXX",
"XXXXXXXXXXXXXXXXXXXXXXXX: d l.].[.[.B.y ....z i i s d u e , : ; XXXXXXXXXXXXXXXX",
"XXXXXXXXXXXXXXXXXXXXXXXXXXXX5 K *.l.*.5 5 o O o o 3 3 = = XXXXXXXXXXXXXXXXXXXXXX",
"XXXXXXXXXXXXXXXXXXXXXXXXXXXXXXt ` = % u l | 8.c. .| l p e & XXXXXXXXXXXXXXXXXXXX",
"XXXXXXXXXXXXXXXXXXXXXXXXXXXXX Q Z.a E.!.!.G.G.2.~ +.&.%.,.8.s XXXXXXXXXXXXXXXXXX",
"l ..3.w.3...H XXXXXXXXXX8 P $ ! ( x {.2.H.K.L.S.~ ` ` 2.O.W.{ XXXXXXXXXXXXXXXXXX",
"%.(. X|.|..X}.`.R.M.w.@.P n.A ! ! > (.F.L.U.U.1.Y A.D.D.O.N.p XXXXXXXXXXXXXXXXXX",
"XXj 8.5.N.E.~.`.).`.}.).G Z W } Q y c./.G.Y.I.m.h.^ ` ) 4.9.; XXXXXXXXXXXXXXXXXX",
"XXXXXXXXXXu f ] { ..,.X.F V w 6.l * f ^.0.H.J.E I _ 2.+.N.g XXXXXXXXXXXXXXXXXXXX",
"XXXXXXXXXXXXXXXXXXXX% P j.A * , h e f $./.F.L.A.Q ^ Q <...& XXXXXXXXXXXXXXXXXXXX",
"XXXXXXXXXXXXXXXXXXXXXX7 9 XXXX, <.& i y #.M.2.` t Q ,.;.> XXXXXXXXXXXXXXXXXXXXXX",
"XXXXXXXXXXXXXXXXXXXXXXXXXXXXXX; i ; e h o z 4.} z <.| : XXXXXXXXXXXXXXXXXXXXXXXX",
"XXXXXXXXXXXXXXXXXXXXXXXXXXXXXXXXXXXX- r = r a j l s XXXXXXXXXXXXXXXXXXXXXXXXXXXX",
"XXXXXXXXXXXXXXXXXXXXXXXXXXXXXXXXXXXXXXXXXXXXO   XXXXXXXXXXXXXXXXXXXXXXXXXXXXXXXX",
"XXXXXXXXXXXXXXXXXXXXXXXXXXXXXXXXXXXXXXXXXXXXXXXXXXXXXXXXXXXXXXXXXXXXXXXXXXXXXXXX",
"XXXXXXXXXXXXXXXXXXXXXXXXXXXXXXXXXXXXXXXXXXXXXXXXXXXXXXXXXXXXXXXXXXXXXXXXXXXXXXXX"
};
