/* XPM */
static char *result[] = {
/* columns rows colors chars-per-pixel */
"40 40 217 2 ",
"   c black",
".  c #010201",
"X  c #010301",
"o  c #020302",
"O  c #020503",
"+  c #040804",
"@  c #040904",
"#  c #040905",
"$  c #040A05",
"%  c #050A05",
"&  c #050B06",
"*  c #060C06",
"=  c #060C07",
"-  c #060D07",
";  c #060E07",
":  c #070E08",
">  c #070F08",
",  c #071008",
"<  c #071009",
"1  c #081109",
"2  c #09130A",
"3  c #09140A",
"4  c #0A160C",
"5  c #0B190D",
"6  c #0C1A0D",
"7  c #0C1A0E",
"8  c #0C1B0E",
"9  c #0D1C0F",
"0  c #0D1D0F",
"q  c #0D1E10",
"w  c #0E1E10",
"e  c #0E1F10",
"r  c #0E1F11",
"t  c #0E2011",
"y  c #0F2111",
"u  c #0F2112",
"i  c #0F2212",
"p  c #102313",
"a  c #102413",
"s  c #122815",
"d  c #122915",
"f  c #132916",
"g  c #132A16",
"h  c #132B16",
"j  c #142B17",
"k  c #17321A",
"l  c #18351C",
"z  c #19361D",
"x  c #19371D",
"c  c #1A381E",
"v  c #1A391E",
"b  c #1A3A1E",
"n  c #1B3B1F",
"m  c #1C3D20",
"M  c #1C3E21",
"N  c #1D3F21",
"B  c #1D4021",
"V  c #1D4022",
"C  c #1D4122",
"Z  c #1E4122",
"A  c #1E4223",
"S  c #1F4223",
"D  c #1E4323",
"F  c #1F4323",
"G  c #204625",
"H  c #204725",
"J  c #204726",
"K  c #214726",
"L  c #214826",
"P  c #224B28",
"I  c #234C28",
"U  c #234D28",
"Y  c #234E29",
"T  c #244E29",
"R  c #26522B",
"E  c #26522C",
"W  c #26532C",
"Q  c #26542C",
"!  c #27552D",
"~  c #29592F",
"^  c #295B30",
"/  c #2A5B30",
"(  c #2B5E32",
")  c #2B5F32",
"_  c #2C5F32",
"`  c #2C6233",
"'  c #2D6334",
"]  c #2E6435",
"[  c #2E6535",
"{  c #2E6636",
"}  c #2F6736",
"|  c #2F6837",
" . c #306837",
".. c #306A38",
"X. c #316B38",
"o. c #316B39",
"O. c #326B39",
"+. c #316C39",
"@. c #326D3A",
"#. c #336F3A",
"$. c #33703B",
"%. c #33713B",
"&. c #34703B",
"*. c #34713C",
"=. c #34733C",
"-. c #35743D",
";. c #35753D",
":. c #36753D",
">. c #36743E",
",. c #36753E",
"<. c #36763E",
"1. c #37763F",
"2. c #36773F",
"3. c #37773F",
"4. c #36783F",
"5. c #37783F",
"6. c #37793F",
"7. c #377840",
"8. c #377940",
"9. c #377A40",
"0. c #387840",
"q. c #387940",
"w. c #387A40",
"e. c #387B40",
"r. c #387A41",
"t. c #397A41",
"y. c #387B41",
"u. c #397B41",
"i. c #387C41",
"p. c #397C41",
"a. c #397C42",
"s. c #397D42",
"d. c #3A7C42",
"f. c #397E42",
"g. c #3A7E42",
"h. c #3A7E43",
"j. c #3A7F43",
"k. c #3B7F43",
"l. c #3A8043",
"z. c #3B8044",
"x. c #3A8144",
"c. c #3B8144",
"v. c #3B8244",
"b. c #3B8345",
"n. c #3C8345",
"m. c #3E8347",
"M. c #3C8445",
"N. c #3C8545",
"B. c #3C8446",
"V. c #3C8546",
"C. c #3D8546",
"Z. c #3D8646",
"A. c #3C8746",
"S. c #3D8647",
"D. c #3D8747",
"F. c #3E8647",
"G. c #3E8747",
"H. c #3D8847",
"J. c #3E8847",
"K. c #3F8548",
"L. c #3E8848",
"P. c #3E8948",
"I. c #3F8849",
"U. c #3E8A48",
"Y. c #3E8A49",
"T. c #3F8A49",
"R. c #3F8B49",
"E. c #3F8C49",
"W. c #3F8C4A",
"Q. c #42884B",
"!. c #408B4A",
"~. c #408C4A",
"^. c #408D4A",
"/. c #418D4B",
"(. c #408E4A",
"). c #408E4B",
"_. c #418F4B",
"`. c #43894C",
"'. c #448A4D",
"]. c #448B4D",
"[. c #428D4C",
"{. c #428E4C",
"}. c #45924F",
"|. c #45934F",
" X c #469350",
".X c #479551",
"XX c #499553",
"oX c #489652",
"OX c #499753",
"+X c #4A9854",
"@X c #4C9A56",
"#X c #4C9C56",
"$X c #4D9D58",
"%X c #50A05A",
"&X c #50A05B",
"*X c #51A15B",
"=X c #53A15D",
"-X c #52A35D",
";X c #54A25E",
":X c #54A55E",
">X c #54A55F",
",X c #57A761",
"<X c #58A762",
"1X c #58AA62",
"2X c #58AB63",
"3X c #59AB64",
"4X c #5AAC64",
"5X c #5AAD65",
"6X c #5CB067",
"7X c #5EB168",
"8X c #5EB269",
"9X c #60B46B",
"0X c #60B56B",
"qX c #61B66C",
"wX c #62B76D",
"eX c #62B86D",
"rX c None",
/* pixels */
"rXrXrXrXrXrXrXrXrXrXrXrXrXrXrXrXrXrXrXrXrXrXrXrXrXrXrXrXrXrXrXrXrXrXrXrXrXrXrXrX",
"rXrXrXrXrXrXrXrXrXrXrXrXrXrXrXrXrXrXrXrXrXrXrXrXrXrXrXrXrXrXrXrXrXrXrXrXrXrXrXrX",
"rXrXrXrXrXrXrXrXrXrXrXrXrXrXrXrXrXrXrXrXrXrXrXrXrXrXrXrXrXrXrXrXrXrXrXrXrXrXrXrX",
"rXrXrXrXrXrXrXrXrXrXrXrXrXrXrXrXrXrXrXrXrXrXrXrXrXrXrXrXrXrXrXrXrXrXrXrXrXrXrXrX",
"rXrXrXrXrXrXrXrXrXrXrXrXrXrXrXrXrXrXrXrXrXrXrXrXrXrXrXrXrXrXrXrXrXrXrXrXrXrXrXrX",
"rXrXrXrXrXrXrXrXrXrXrXrXrXrXrXrXrXrXrXrXrXrXrXrXrXrXrXrXrXrXrXrXrXrXrXrXrXrXrXrX",
"rXrXrXrXrXrXrXrXrXrXrXrXrXrXrXrXrXrXrXrXrXrXrXrXrXrXrXrXrXrXrXrXrXrXrXrXrXrXrXrX",
"rXrXrXrXrXrXrXrXrXrXrXrXrXrXrXrXrXrXrXrXrXrXrXrXrXrXrXrXrXrXrXrXrXrXrXrXrXrXrXrX",
"rXrXrXrXrXrXrXrXrXrXrXrXrXrXrXrXrXrXrXrXrXrXrXrXrXrXrXrXrXrXrXrXrXrXrXrXrXrXrXrX",
"rXrXrXrXrXrXrXrXrXrXrXrXrXrXrXrXrXrXrXrXrXrXrXrXrXrXrXrXrXrXrXrXrXrXrXrXrXrXrXrX",
"rXrXrXrXrXrXrXrXrXrXrXrXrX                            rXrXrXrXrXrXrXrXrXrXrXrXrX",
"rXrXrXrXrXrXrXrXrXrXrXrX& - ; > , < < , , < < , > ; - & rXrXrXrXrXrXrXrXrXrXrXrX",
"rXrXrXrXrXrXrXrXrX  rXO y k b N A D A A A A D A N b k y O rX  rXrXrXrXrXrXrXrXrX",
"rXrXrXrXrXrXrXrX.     : l ~ +.-.4.8.6.6.6.6.8.4.-.+.~ l :     . rXrXrXrXrXrXrXrX",
"rXrXrXrXrXrXrX4 q w 0 f P $.b.U.^.(.^.^.^.^.(.^.U.b.$.P f 0 w q 4 rXrXrXrXrXrXrX",
"rXrXrXrXrXrX@ g G T U Q | f.J.R.E.W.E.E.E.E.W.E.R.J.f.| Q U T G g @ rXrXrXrXrXrX",
"rXrXrXrXrX+ 5 M { -.=.-.s.Z.P.P.P.P.P.P.P.P.P.P.P.P.Z.s.-.=.-.{ M 5 + rXrXrXrXrX",
"rXrXrXrX1 s m ^ 2.v.l.l.b.D.P.P.P.P.P.P.P.P.P.P.P.U.P.V.c.v.b.2.^ m s 1 rXrXrXrX",
"rXrXrXo e H { 4.b.H.D.D.L.P.U.P.P.P.P.P.P.P.P.P.P.P.P.H.D.D.D.b.4.{ H e o rXrXrX",
"rXrX2 e c ( y.N.H./. XOX+XOX X/.P.P.P.P.P.P.P.P.P.P.P.R.W.^.^.R.D.y.( c e 2 rXrX",
"  * g K ( ;.M.A.H.}.&X1X5X2X*X XP.H.P.P.P.P.P.P.P.P.U.R.^.).).^.R.B.-.( K g *   ",
"  - z ] y.M.P.R.{.@X3XqXwX7X>X.XT.H.P.P.P.P.P.P.P.U.D.x.y.4.4.y.v.D.V.i.] z -   ",
"  > m %.D.P./.oX%X2X0XeX6X:X#X|.).^.(.^.R.U.P.U.R.E.v.} U C C U | v.W.P.%.m >   ",
"  , C <.Y.U.[.$X4X9XwX8X-X X!.L.D.D.D.H.L.P.P.P.R.~.e.I w % % w I y.).(.<.C ,   ",
"  < D 9.E.D.I.XX;X<X,X=XXXF.4...` ) ` X.9.n.C.M.S.L.-.N $     $ M -.~._.9.D <   ",
"  < D 9.T.n.h.m.`.].'.Q.K.a.' B d i d V ] y.j.a.j.z.@.n #     # n @.G.^.9.D <   ",
"  , Z <.S.h.5.3.0.0.0.0.a.<.! a X   X a ! <.u.5.q.t.o.F 7 # # 7 S O.c.L.<.Z ,   ",
"  > m %.v.a.3.,.,.:.;.,.w.>.R 9       9 R ,.u.3.5.0.&.~ S v v F ~ &.g.n.%.m >   ",
"  ; x ] <.3.3.3.3.3.3.3.u.,.! p .   . p ! ,.u.3.3.3.,.&.o. . .X.&.,.5.2.] x ;   ",
"  * h J / +.3.q.3.3.3.3.r.<._ n p 0 p n _ <.r.3.3.3.3.q.t.u.u.r.r.3.+.^ J h *   ",
"rXrX2 e x / -.7.<.<.3.3.0.3.@._ ! R ! _ @.3.0.3.3.3.3.0.q.q.7.5.w.-./ x e 2 rXrX",
"rXrXrXo t L ` [ '  .*.1.5.3.3.1.<.<.<.1.3.3.3.3.3.3.3.5.1.*. .' [ ` L t o rXrXrX",
"rXrXrXrX3 j l l x L ] 3.u.u.d.h.k.z.k.h.a.u.u.u.u.u.u.p.3.] L x l l j 3 rXrXrXrX",
"rXrXrXrXrX= - % > g W #.<.,.<.<.<.<.<.<.,.,.,.,.<.<.,.<.#.W g > % - = rXrXrXrXrX",
"rXrXrXrXrXrX      6 n Y R E W W W W W W W W W W W W E R Y n 6       rXrXrXrXrXrX",
"rXrXrXrXrXrXrXrXrX> 8 r y u i u u u u u u u u u u i u y r 8 > rXrXrXrXrXrXrXrXrX",
"rXrXrXrXrXrXrXrXrXrX. . . . . . . . . . . . . . . . . . . . rXrXrXrXrXrXrXrXrXrX",
"rXrXrXrXrXrXrXrXrXrXrXrX  rXrXrXrXrXrXrXrXrXrXrXrXrXrX  rXrXrXrXrXrXrXrXrXrXrXrX",
"rXrXrXrXrXrXrXrXrXrXrXrXrXrXrXrXrXrXrXrXrXrXrXrXrXrXrXrXrXrXrXrXrXrXrXrXrXrXrXrX",
"rXrXrXrXrXrXrXrXrXrXrXrXrXrXrXrXrXrXrXrXrXrXrXrXrXrXrXrXrXrXrXrXrXrXrXrXrXrXrXrX"
};
