/* XPM */
static char *result[] = {
/* columns rows colors chars-per-pixel */
"40 40 97 2 ",
"   c #434F65",
".  c #434F66",
"X  c #445066",
"o  c #48556C",
"O  c #49566D",
"+  c #4A576F",
"@  c #4C576D",
"#  c #4C586E",
"$  c #4C586F",
"%  c #4D596F",
"&  c #4E5A70",
"*  c #4F5B71",
"=  c #4D5A73",
"-  c #4E5B74",
";  c #505C71",
":  c #566279",
">  c #57637A",
",  c #5B677C",
"<  c #576580",
"1  c #5B6882",
"2  c #626F87",
"3  c #636F87",
"4  c #606F8C",
"5  c #606F8D",
"6  c #667186",
"7  c #61708D",
"8  c #62708D",
"9  c #61708E",
"0  c #62718E",
"q  c #63728F",
"w  c #69758B",
"e  c #647391",
"r  c #667490",
"t  c #6F7B90",
"y  c #687897",
"u  c #6E7C96",
"i  c #6A7A99",
"p  c #6D7D9D",
"a  c #6D7D9E",
"s  c #6D7E9E",
"d  c #6E7E9E",
"f  c #6E7E9F",
"g  c #6F7F9F",
"h  c #727F98",
"j  c #6F7FA0",
"k  c #758094",
"l  c #778195",
"z  c #738099",
"x  c #70809F",
"c  c #79859C",
"v  c #7A869D",
"b  c #7F8A9F",
"n  c #6F80A0",
"m  c #7080A0",
"M  c #7081A1",
"N  c #7181A1",
"B  c #7181A2",
"V  c #7282A3",
"C  c #7585A3",
"Z  c #7786A5",
"A  c #7787A6",
"S  c #7B88A1",
"D  c #7F8BA2",
"F  c #838EA4",
"G  c #808DA6",
"H  c #818FAC",
"J  c #8390A9",
"K  c #8391AE",
"L  c #8794AE",
"P  c #8895AE",
"I  c #8895AF",
"U  c #8996AF",
"Y  c #8895B0",
"T  c #8996B0",
"R  c #8996B1",
"E  c #8A97B1",
"W  c #8B97B1",
"Q  c #8A97B2",
"!  c #8C98B2",
"~  c #8C99B2",
"^  c #8D9AB4",
"/  c #929EB6",
"(  c #949FB4",
")  c #94A0B8",
"_  c #94A1B9",
"`  c #95A1B9",
"'  c #9AA4B8",
"]  c #9DA7BB",
"[  c #99A5BC",
"{  c #9CA8BF",
"}  c #9EA8BE",
"|  c #9FAABF",
" . c gray68",
".. c #A1ABC1",
"X. c #A2ADC2",
"o. c #A2ADC3",
"O. c None",
/* pixels */
"O.O.O.O.O.O.O.O.O.O.O.O.O.O.O.O.O.O.O.O.O.O.O.O.O.O.O.O.O.O.O.O.O.O.O.O.O.O.O.O.",
"O.O.O.O.O.O.O.O.O.O.O.O.O.O.O.O.O.O.O.O.O.O.O.O.O.O.O.O.O.O.O.O.O.O.O.O.O.O.O.O.",
"O.O.O.O.O.O.O.O.O.O.O.O.O.O.O.O.O.O.O.O.O.O.O.O.O.O.O.O.O.O.O.O.O.O.O.O.O.O.O.O.",
"O.O.O.O.O.O.O.O.O.O.O.O.O.O.O.O.O.O.O.O.O.O.O.O.O.O.O.O.O.O.O.O.O.O.O.O.O.O.O.O.",
"O.O.O.O.O.O.O.O.O.O.O.O.O.O.O.O.O.O.O.O.O.O.O.O.O.O.O.O.O.O.O.O.O.O.O.O.O.O.O.O.",
"O.O.O.O.O.O.O.O.O.O.O.O.O.O.O.O.I I I I I I I I O.O.O.O.O.O.O.O.O.O.O.O.O.O.O.O.",
"O.O.O.O.O.O.O.O.O.O.O.O.O.O.O.O.T I I I I I I T O.O.O.O.O.O.O.O.O.O.O.O.O.O.O.O.",
"O.O.O.O.O.O.O.O.O.O.I I I T O.% S Y L L L L Y S % O.T I I I O.O.O.O.O.O.O.O.O.O.",
"O.O.O.O.O.O.O.O.O.I I I I T G $ c ` / / / / ` c $ G T I I I I O.O.O.O.O.O.O.O.O.",
"O.O.O.O.O.O.O.O.O.I I I I T G $ F o.| | | | o.F $ G T I I I I O.O.O.O.O.O.O.O.O.",
"X z Q I I I E 3 > P U I I E G # r A C C C C A r # G E I I U P > 3 E I I I Q z X ",
"X z Q I I I E 2 , } | | | ..( & 4 n d d d d n 4 & ( ..| | | } , 2 E I I I Q z X ",
"X h R L L L T 2 : W ~ ! ! ^ J $ 7 N g g g g N 7 $ J ^ ! ! ~ W : 2 T L L L R h X ",
"X v _ / / / ) w = p s s s f y o 7 N g g g g N 7 o y f s s s p = w ) / / / _ v X ",
"X F o.| | | X.t = d g g g m i O 7 N g g g g N 7 O i m g g g d = t X.| | | o.F X ",
"X r A C C C Z 1 - d g g g g d O.O.O.O.O.O.O.O.O.O.d g g g g d - 1 Z C C C A r X ",
"X 7 n d d d f e O.O.O.O.O.O.O.O.O.O.O.O.O.O.O.O.O.O.O.O.O.O.O.O.e f d d d n 7 X ",
"X q V N N N M O.O.O.O.O.O.O.O.O.O.O.O.O.O.O.O.O.O.O.O.O.O.O.O.O.O.M N N N V q X ",
". < 9 4 4 4 4 4 O.O.O.O.O.O.O.O.O.O.O.O.O.O.O.O.O.O.O.O.O.O.O.O.4 4 4 4 4 9 < . ",
"  @ ; * * * * * O.O.O.O.O.O.O.O.O.O.O.O.O.O.O.O.O.O.O.O.O.O.O.O.* * * * * ; @   ",
"X b ] ' ' ' ' ' O.O.O.O.O.O.O.O.O.O.O.O.O.O.O.O.O.O.O.O.O.O.O.O.' ' ' ' ' ] b X ",
"X u K H H H H H O.O.O.O.O.O.O.O.O.O.O.O.O.O.O.O.O.O.O.O.O.O.O.O.H H H H H K u X ",
"X 5 j a a a a a O.O.O.O.O.O.O.O.O.O.O.O.O.O.O.O.O.O.O.O.O.O.O.O.a a a a a j 5 X ",
"X 8 N g g g g g O.O.O.O.O.O.O.O.O.O.O.O.O.O.O.O.O.O.O.O.O.O.O.O.g g g g g N 8 X ",
"X 0 N g g g g g O.O.O.O.O.O.O.O.O.O.O.O.O.O.O.O.O.O.O.O.O.O.O.O.g g g g g N 0 X ",
"X 7 m d d d d d O.O.O.O.O.O.O.O.O.O.O.O.O.O.O.O.O.O.O.O.O.O.O.O.d d d d d m 7 X ",
"  + = = = = = = O.O.O.O.O.O.O.O.O.O.O.O.O.O.O.O.O.O.O.O.O.O.O.O.= = = = = = +   ",
"X 6 l k k k k k O.O.O.O.O.O.O.O.O.O.O.O.O.O.O.O.O.O.O.O.O.O.O.O.k k k k k l 6 X ",
"X D { [ [ [ [ [ O.O.O.O.O.O.O.O.O.O.O.O.O.O.O.O.O.O.O.O.O.O.O.O.[ [ [ [ [ { D X ",
"X 0 B x x x x x O.O.O.O.O.O.O.O.O.O.O.O.O.O.O.O.O.O.O.O.O.O.O.O.x x x x x B 0 X ",
"X 8 M g g g g g O.O.O.O.O.O.O.O.O.O.O.O.O.O.O.O.O.O.O.O.O.O.O.O.g g g g g M 8 X ",
"X 8 N g g g g g O.O.O.O.O.O.O.O.O.O.O.O.O.O.O.O.O.O.O.O.O.O.O.O.g g g g g N 8 X ",
"X q V N N N N N O.O.O.O.O.O.O.O.O.O.O.O.O.O.O.O.O.O.O.O.O.O.O.O.N N N N N V q X ",
". < 9 4 4 4 4 4 O.O.O.O.O. .O.O.O.O.O.O.O.O.O.O.O.O. .O.O.O.O.O.4 4 4 4 4 9 < . ",
"  @ ; * * * * * O.O.O.O.O.O.O.O.O.O.O.O.O.O.O.O.O.O.O.O.O.O.O.O.* * * * * ; @   ",
"X b ] ' ' ' ' ' O.O.O.O.O.O.O.O.O.O.O.O.O.O.O.O.O.O.O.O.O.O.O.O.' ' ' ' ' ] b X ",
"X u K H H H H H O.O.O.O.O.O.O.O.O.O.O.O.O.O.O.O.O.O.O.O.O.O.O.O.H H H H H K u X ",
"X 5 j a a a a a O.O.O.O.O.O.O.O.O.O.O.O.O.O.O.O.O.O.O.O.O.O.O.O.a a a a a j 5 X ",
"X 8 N g g g g g O.O.O.O.O.O.O.O.O.O.O.O.O.O.O.O.O.O.O.O.O.O.O.O.g g g g g N 8 X ",
"X 8 N g g g g g O.O.O.O.O.O.O.O.O.O.O.O.O.O.O.O.O.O.O.O.O.O.O.O.g g g g g N 8 X "
};
