/* XPM */
static char *result[] = {
/* columns rows colors chars-per-pixel */
"40 40 175 2 ",
"   c #514047",
".  c #504047",
"X  c #503F47",
"o  c #524047",
"O  c #544147",
"+  c #594348",
"@  c #5C4548",
"#  c #5D4549",
"$  c #64494A",
"%  c #6C4C4B",
"&  c #6E4D4B",
"*  c #534147",
"=  c #554248",
"-  c #564248",
";  c #544247",
":  c #524147",
">  c #76514C",
",  c #79524C",
"<  c #4F3F47",
"1  c #5A4448",
"2  c #624749",
"3  c #65494A",
"4  c #634849",
"5  c #604749",
"6  c #574348",
"7  c #7C534D",
"8  c #624849",
"9  c #6F4D4B",
"0  c #74504C",
"q  c #694B4A",
"w  c #5B4548",
"e  c #584348",
"r  c #5F4649",
"t  c #6A4B4A",
"y  c #75504C",
"u  c #7A524C",
"i  c #66494A",
"p  c #644849",
"a  c #6D4D4B",
"s  c #734F4B",
"d  c #78524C",
"f  c #554247",
"g  c #78514C",
"h  c #77514C",
"j  c #5C4549",
"k  c #6D4C4B",
"l  c #744F4C",
"z  c #734F4C",
"x  c #724F4B",
"c  c #5B4448",
"v  c #5E4649",
"b  c #574248",
"n  c #594448",
"m  c #4E3F47",
"M  c #4E3E47",
"N  c #614749",
"B  c #704E4B",
"V  c #724F4C",
"C  c #694B4C",
"Z  c #61484B",
"A  c #594449",
"S  c #534148",
"D  c #6C4C4A",
"F  c #6F4E4B",
"G  c #7A534E",
"H  c #7C5451",
"J  c #775251",
"K  c #664A4D",
"L  c #61474A",
"P  c #584349",
"I  c #7E554F",
"U  c #885A54",
"Y  c #855955",
"T  c #6E4E4F",
"R  c #4F3F46",
"E  c #76514D",
"W  c #73504E",
"Q  c #6C4D4E",
"!  c #60474B",
"~  c #544248",
"^  c #7F5550",
"/  c #8A5B55",
"(  c #875A55",
")  c #704F4F",
"_  c #584449",
"`  c #4E3F46",
"'  c #7C544F",
"]  c #835853",
"[  c #805753",
"{  c #574349",
"}  c #895A54",
"|  c #865955",
" . c #6F4E4F",
".. c #76504B",
"X. c #7F554F",
"o. c #714F50",
"O. c #76504C",
"+. c #895B54",
"@. c #704F50",
"#. c #7A524D",
"$. c #805650",
"%. c #895B55",
"&. c #865A55",
"*. c #78524D",
"=. c #7C544E",
"-. c #815651",
";. c #875A54",
":. c #8D5D57",
">. c #875A56",
",. c #6F4F4F",
"<. c #885A55",
"1. c #8E5D57",
"2. c #6E4C47",
"3. c #704D49",
"4. c #7E5550",
"5. c #805651",
"6. c #8B5C56",
"7. c #855852",
"8. c #79534F",
"9. c #674A4B",
"0. c #5F4647",
"q. c #6B4B48",
"w. c #744F4A",
"e. c #7A534D",
"r. c #664A4B",
"t. c #604541",
"y. c #664844",
"u. c #74504B",
"i. c #845852",
"p. c #845853",
"a. c #74504A",
"s. c #664845",
"d. c #5B4445",
"f. c #534146",
"g. c #584244",
"h. c #604543",
"j. c #7D544F",
"k. c #57403E",
"l. c #5E4442",
"z. c #6F4D49",
"x. c #815751",
"c. c #865954",
"v. c #584141",
"b. c #534042",
"n. c #524046",
"m. c #584140",
"M. c #79524E",
"N. c #534043",
"B. c #533F42",
"V. c #584243",
"C. c #634746",
"Z. c #744F4B",
"A. c #734F4A",
"S. c #724E4A",
"D. c #694A48",
"F. c #5C4444",
"G. c #513F44",
"H. c #514046",
"J. c #544043",
"K. c #5D4444",
"L. c #6A4B48",
"P. c #724F4A",
"I. c #534145",
"U. c #604441",
"Y. c #5F4441",
"T. c #5B4342",
"R. c #564144",
"E. c #504048",
"W. c #544042",
"Q. c #56403E",
"!. c #57403D",
"~. c #554040",
"^. c #524044",
"/. c #514048",
"(. c white",
/* pixels */
"                                                                                ",
"                                                                                ",
"                                                            . X X X .           ",
"                                                              o o o             ",
"                . . . .                       . .         O + @ # @ + O         ",
"              . . X X . .                   . . .     .   + $ % & % $ +   .     ",
"              * = - - = *                 o * = ; :   X   @ % > , > % @ o X     ",
"        . < o 1 2 3 3 2 1 o < .         . * @ 4 5 6   <   # & , 7 , & # o X     ",
"          . = 8 9 0 0 9 8 = .         . . = 4 & q w   <   @ % > , > % @ o X     ",
"        O e r t y u u y t r e O       . . ; 5 q i 1   <   + $ % & % $ +   .     ",
"    .   + p a s > d d > s a p +   .       : 6 w 1 f   .   O + @ # @ + O         ",
"    X o @ % > g h h h h g > % @ o X                           o o o             ",
"    X o # & , u h h h h , g a j o X         . X X X X X X X X X X X .           ",
"    X o @ % > g h h h h d h % @ o X                 o o o                       ",
"    .   + p a s > g g g , h k @ o X             O + @ # @ + O                   ",
"        O e r t y , , d , g k @ o X         .   + $ % & % $ +   .               ",
"          . = 8 9 l z s 0 x q c   X         X o @ % > , > % @ o X               ",
"        . < o 1 2 3 $ $ 3 p v b   .         X o # & , 7 , & # o X               ",
"              * = - - = - = O :             X o @ % > , > % @ o X               ",
"      . . . . X < < X X X X .               .   + $ % & % p e   < . .           ",
"    . . X X X < < < . . . . .                   O + @ # @ e * . < X .           ",
"    * = - - = - = O :                                     * O = - = O :         ",
"< o n 2 3 $ $ 3 p v - . < X .                   . < m M < f v p 3 p v f < <     ",
". = N 9 l z s 0 x q w o .                             . o c q x y x q w : .     ",
"c r t y , , d , g B $ j w @ e * . .         .   O + @ w j $ B g u g V C Z A S . ",
"D a x > g g g d g 0 F % k D p 6 X <         < . e p D k % F 0 g g g G H J K - < ",
"> h h h h h h h h h h h g > & L P S o       o = r a > g h h h h > h I U Y T P R ",
"d d g h h h h h h h g d , d E W Q ! ~ X X * 1 8 t s g , d g h h > h ^ / ( ) _ ` ",
"h h h h h h h h h h h h h h ' ] [ Q { R < = 2 9 y > h h h h h h > h ^ } |  .P ` ",
"h h h h h h h h h h h h ..h X./ ( o._ ` < - 3 l , g h h h h h h O.h I U |  .P ` ",
"h h h h h h h h h h h h ..h I +.( @.P ` < - $ z , g h h h h h h ..h I U |  .P ` ",
"h h h h h h h h h h h h g #.$.%.&.) P ` < = $ s d g h h h h h h g #.$.%.|  .P ` ",
"*.g h > > > > > > O...g =.-.;.:.>.@._ ` < - 3 z , g > > > O...g =.-.;.:.>.,._ ` ",
"h h h h h h h h h h h #.-.<.:.1.Y  .P ` < = p x g g h h h h h #.-.<.:.1.Y T P R ",
"2.3.> ' ^ ^ 4.4.4.4.I 5.;.:.6.7.8.9.- < < O 0.q.w.e.4.^ 4.4.I 5.;.:.6.7.8.r.- < ",
"t.y.u.i.%.%.<.<.<.U U %.:.1.p.a.s.d.O . . f.g.h.2.j.U / <.U U %.:.1.p.a.s.d.O . ",
"k.l.z.x.U ;.;.;.;.;.;.;.<.c.G s.v.b.n.    n.b.m.s.M.c.<.;.;.;.;.<.c.G s.v.N.n.  ",
"B.V.C.z.Z.s A.A.A.A.A.A.Z.S.D.F.N.G.H.    H.G.J.K.L.P.Z.A.A.A.A.Z.S.D.F.N.G.H.  ",
"H.I.g.l.U.Y.Y.Y.Y.Y.Y.Y.U.Y.T.R.n.            n.R.T.Y.U.Y.Y.Y.Y.U.Y.T.R.n.      ",
"E.H.W.Q.!.!.!.!.!.!.!.!.!.!.~.^.  /.        /.  ^.~.!.!.!.!.!.!.!.!.~.^.  /.    "
};
