/* XPM */
static char *result[] = {
/* columns rows colors chars-per-pixel */
"30 40 233 2 ",
"   c #000304",
".  c #000307",
"X  c #020506",
"o  c #030506",
"O  c #020507",
"+  c #030507",
"@  c #040507",
"#  c #050507",
"$  c #040607",
"%  c #0B0907",
"&  c #000308",
"*  c #000408",
"=  c #040508",
"-  c #050608",
";  c #060608",
":  c #070608",
">  c #070609",
",  c #070709",
"<  c #080609",
"1  c #090609",
"2  c #08070A",
"3  c #0A070A",
"4  c #0B070A",
"5  c #0C070A",
"6  c #0A080A",
"7  c #0A090B",
"8  c #0B090C",
"9  c #0B0A0C",
"0  c #0C080C",
"q  c #0D080C",
"w  c #0D090C",
"e  c #0E090C",
"r  c #0F090D",
"t  c #0C0A0D",
"y  c #0D0B0E",
"u  c #0E0C0E",
"i  c #0F0D0F",
"p  c #180F06",
"a  c #17070E",
"s  c #120B08",
"d  c #10080C",
"f  c #10090D",
"g  c #120A0F",
"h  c #18080F",
"j  c #160B11",
"k  c #100E10",
"l  c #110E11",
"z  c #100F11",
"x  c #120E11",
"c  c #110F12",
"v  c #130F12",
"b  c #1C0D14",
"n  c #0E1011",
"m  c #111012",
"M  c #121012",
"N  c #131013",
"B  c #141013",
"V  c #151013",
"C  c #151014",
"Z  c #151114",
"A  c #171014",
"S  c #1B1015",
"D  c #191116",
"F  c #1D1015",
"G  c #251308",
"H  c #2A1508",
"J  c #2E1608",
"K  c #301708",
"L  c #250C13",
"P  c #210F17",
"I  c #280B14",
"U  c #290C14",
"Y  c #2D0A18",
"T  c #2F0A18",
"R  c #2F0B19",
"E  c #310B19",
"W  c #320C18",
"Q  c #330D18",
"!  c #350D18",
"~  c #350D19",
"^  c #3E0F1B",
"/  c #3D0D1D",
"(  c #231117",
")  c #221018",
"_  c #26141A",
"`  c #25161C",
"'  c #2B141B",
"]  c #2B111E",
"[  c #2D131D",
"{  c #2E131E",
"}  c #28171D",
"|  c #30131E",
" . c #35121C",
".. c #37121E",
"X. c #2F1621",
"o. c #311420",
"O. c #331421",
"+. c #351522",
"@. c #391624",
"#. c #381725",
"$. c #3A1724",
"%. c #3A1725",
"&. c #3B1725",
"*. c #3C1725",
"=. c #3D1725",
"-. c #3F1725",
";. c #3C1726",
":. c #371922",
">. c #3C1826",
",. c #3E1826",
"<. c #3F1D27",
"1. c #45101D",
"2. c #46101D",
"3. c #44121F",
"4. c #48111F",
"5. c #4B111F",
"6. c #51151D",
"7. c #51161D",
"8. c #4B2307",
"9. c #462009",
"0. c #552706",
"q. c #552807",
"w. c #52220C",
"e. c #421521",
"r. c #451726",
"t. c #4B1220",
"y. c #4C1120",
"u. c #4F1221",
"i. c #4B1626",
"p. c #401E27",
"a. c #441E29",
"s. c #451E29",
"d. c #4B1828",
"f. c #511221",
"g. c #541525",
"h. c #551525",
"j. c #5B1629",
"k. c #5B1729",
"l. c #5F1528",
"z. c #5C1729",
"x. c #5F1629",
"c. c #511B29",
"v. c #52182A",
"b. c #5E182B",
"n. c #5F1A2D",
"m. c #601227",
"M. c #631427",
"N. c #601328",
"B. c #661528",
"V. c #69152A",
"C. c #6A152A",
"Z. c #6D152B",
"A. c #6C162A",
"S. c #6C162B",
"D. c #69172C",
"F. c #6F172C",
"G. c #671A2E",
"H. c #691A2D",
"J. c #6F192E",
"K. c #70162C",
"L. c #70172C",
"P. c #71172D",
"I. c #72172D",
"U. c #73172D",
"Y. c #74172D",
"T. c #75172D",
"R. c #75172E",
"E. c #76172E",
"W. c #79162E",
"Q. c #78172E",
"!. c #73182D",
"~. c #70192E",
"^. c #73182E",
"/. c #73192E",
"(. c #72192F",
"). c #731A2F",
"_. c #74182E",
"`. c #75182E",
"'. c #75182F",
"]. c #75192F",
"[. c #79182F",
"{. c #7A182F",
"}. c #751B30",
"|. c #731C31",
" X c #731E33",
".X c #751C31",
"XX c #761D32",
"oX c #731F34",
"OX c #5E2937",
"+X c #642334",
"@X c #672536",
"#X c #6E2134",
"$X c #612A38",
"%X c #632B3A",
"&X c #642B3A",
"*X c #612C3A",
"=X c #6A2C3C",
"-X c #732034",
";X c #722236",
":X c #732236",
">X c #752236",
",X c #752337",
"<X c #732538",
"1X c #752438",
"2X c #782338",
"3X c #78263A",
"4X c #72283A",
"5X c #75283B",
"6X c #732A3D",
"7X c #732B3D",
"8X c #75293C",
"9X c #752A3D",
"0X c #762B3D",
"qX c #732C3E",
"wX c #732D3F",
"eX c #742D3F",
"rX c #772C3E",
"tX c #732F40",
"yX c #732F41",
"uX c #713041",
"iX c #733041",
"pX c #733142",
"aX c #733243",
"sX c #763143",
"dX c #743243",
"fX c #763244",
"gX c #763344",
"hX c #773344",
"jX c #773445",
"kX c #B44D09",
"lX c #C8560A",
"zX c #EA630A",
"xX c None",
/* pixels */
"xXxXxXxXxXxXxXxXxXB xXxXxXxXxXxXxXxXxXxXxXxXxXxXxXxXxXxXxXxX",
"xXxXxXxXxXxXxXxXxXxXB xXxXxXxXxXxXxXxXxXxXxXxXxXxXxXxXxXxXxX",
"B xXxXxXxXxXxXxXxXxXB B B xXxXxXxXxXxXxXxXxXxXxXxXxXxXxXxXxX",
"xXB B B xXxXxXxXxXxXxXxXxXB B xXxXxXxXxXxXxXxXxXxXxXxXxXxXxX",
"xXxXB B xXxXxXxXxXxXxXxXxXB B B xXxXxXxXxXxXxXxXxXxXxXxXxXxX",
"xXxXxXxXB 7 xXxXxXxXxXxXxXxXB B B xXxXxXxXxXxXxXxXxXxXxXxXxX",
"xXxXxXxXxXi 9 xXxXxXxXxXxXxXz c m N xXxXxXxXxXxXxXxXxXxXxXxX",
"xXxXxXxXxXl t - xXxXxXxXxX} ` _ ( V xXxXxXxXxXxXxXxXxXxXxXxX",
"B xXxXxX; 2 , # w OXhXpXuX%X*X+Xh.S M xXxXxXxXxXxXxXxXxXxXxX",
"B B xXxX; - + X 6 :.$XdXpXgXrX3X#Xe.F n xXxXxXxXxXxXxXxXxXxX",
"xXC u ; xXxXxXe : ; a.fXpXtXoX-X6XJ. .A xXxXxXxXxXxXxXxXxXxX",
"B xXxXxXxXxXxX<.;   p.jXiX:X/.). X_.l.g.xXxXxXxXxXxXxXxXxXxX",
"B xXxXxXxXxXxX&X' L c.0X5X].T.R.T.R.E.E.xXxXxXxXxXxXxXxXxXxX",
"xXxXxXxXxXxXxXuX=XH.F.(.~.L.K.L.L.L.I.U.xXxXxXxXxXxXxXxXxXxX",
"xXxXxXxXxXxXxXdXsXXXW.m.T Q ! ! Q T N.[.xXxXxXxXxXxXxXxXxXxX",
"xXxXxXxXxXxXxXiX7X-XD.6.J % = = % J 7.C.U.xXxXxXxXxXxXxXxXxX",
"xXxXxXxXxXxXxXqX X8X&.w.kXG * * G kXw./ R.xXxXxXxXxXxXxXxXxX",
"xXxXxXxXxXxXxX:X^.1X] 0.zXK & & K zXq.Y E.xXxXxXxXxXxXxXxXxX",
"xXxXxXxXxXxXxX!.U.`.R 8.lXH * * H lX8.E R.xXxXxXxXxXxXxXxXxX",
"xXxXxXxXxXxXxXxXU.T.W p 9.s = = s 9.p ~ R.xXxXxXxXxXxXxXxXxX",
"xXxXxXxXxXxXxXxXU.Y.5.a . O $ - = . h 1.R.xXxXxXxXxXxXxXxXxX",
"xXxXxXxXxXxXxXxXxXU.P.t.4 < 1 < ; 3 y.K.xXxXxXxXxXxXxXxXxXxX",
"xXxXxXxXxXxXxXxXxXxX2X@Xs.3.2.U 5 ^ V.{.xXxXxXxXxXxXxXxXxXxX",
"xXxXxXxXxXxXxXxXxXxXwXeX9X}.Q.f.I A.E.U.xXxXxXxXxXxXxXxXxXxX",
"xXxXxXxXxXxXxXxXxXaX<X|..X`.R.S.M.U.Y.U.xXxXxXxXxXxXxXxXxXxX",
"xXxXxXxXxXxXxXxXxXaX,XZ.j.k.k.b.z.4.B.Q.xXxXxXxXxXxXxXxXxXxX",
"xXxXxXxXxXxXxXxXxXyX;Xx.=.*.=.*.| d u.'.xXxXxXxXxXxXxXxXxXxX",
"xXxXxXxXxXxXxXxXiX>Xn.r.%.%.>.{ g , ..v.xXxXxXxXxXxXxXxXxXxX",
"xXxXxXxXxXxXxXxX4XG.i.#.&.;.O.b @ ; ) X.xXxXxXxXxXxXxXxXxXxX",
"xXxXxXxXxXxXxXxXJ.d.*.&.&.$.b > ; : x D xXxXxXxXxXxXxXxXxXxX",
"xXxXxXxXxXxXxXxXxX-.%.,.@.P 0 @ , y k xXxXxXxXxXxXxXxXxXxXxX",
"xXxXxXxXxXxXxXxXxX&.+.o.[ q @ , 8 v xXxXxXxXxXxXxXxXxXxXxXxX",
"xXxXxXxXxXxXxXxXxXxXj f r xXxXxXx B xXxXxXxXxXxXxXxXxXxXxXxX",
"xXxXxXxXxXxXxXxXxXxXxXo o xXxXxXZ B xXxXxXxXxXxXxXxXxXxXxXxX",
"xXxXxXxXxXxXxXxXxXxXxXxXxXxXxXxXxXxXxXxXxXxXxXxXxXxXxXxXxXxX",
"xXxXxXxXxXxXxXxXxXxXxXxXxXxXxXxXxXxXxXxXxXxXxXxXxXxXxXxXxXxX",
"xXxXxXxXxXxXxXxXxXxXxXxXxXxXxXxXxXxXxXxXxXxXxXxXxXxXxXxXxXxX",
"xXxXxXxXxXxXxXxXxXxXxXxXxXxXxXxXxXxXxXxXxXxXxXxXxXxXxXxXxXxX",
"xXxXxXxXxXxXxXxXxXxXxXxXxXxXxXxXxXxXxXxXxXxXxXxXxXxXxXxXxXxX",
"xXxXxXxXxXxXxXxXxXxXxXxXxXxXxXxXxXxXxXxXxXxXxXxXxXxXxXxXxXxX"
};
