/* XPM */
static char *result[] = {
/* columns rows colors chars-per-pixel */
"30 40 237 2 ",
"   c #000405",
".  c #010405",
"X  c #000407",
"o  c #010507",
"O  c #020406",
"+  c #030507",
"@  c #040507",
"#  c #040607",
"$  c #050607",
"%  c #000208",
"&  c #020408",
"*  c #040508",
"=  c #040409",
"-  c #050608",
";  c #060608",
":  c #070608",
">  c #070709",
",  c #080609",
"<  c #080709",
"1  c #0A0709",
"2  c #09070A",
"3  c #0A070A",
"4  c #0D060B",
"5  c #0E070B",
"6  c #07080A",
"7  c #09080A",
"8  c #0A090B",
"9  c #0C080B",
"0  c #0D090C",
"q  c #0C0A0D",
"w  c #0C0B0D",
"e  c #0D0B0D",
"r  c #0D0B0E",
"t  c #0E0B0E",
"y  c #0E0C0F",
"u  c #150D07",
"i  c #11090E",
"p  c #120A0F",
"a  c #16080E",
"s  c #17080E",
"d  c #140B0F",
"f  c #190E08",
"g  c #1A090F",
"h  c #100D10",
"j  c #110E10",
"k  c #170C12",
"l  c #1A0810",
"z  c #1B0811",
"x  c #1F0A11",
"c  c #1A0E12",
"v  c #1B0E15",
"b  c #1C0E15",
"n  c #0F1012",
"m  c #121013",
"M  c #131013",
"N  c #141013",
"B  c #151013",
"V  c #151014",
"C  c #161014",
"Z  c #1A1014",
"A  c #1C1015",
"S  c #3A1D06",
"D  c #301708",
"F  c #311808",
"G  c #200A11",
"H  c #210A11",
"J  c #250B13",
"K  c #210F17",
"L  c #2A0A15",
"P  c #280C15",
"I  c #2A0D15",
"U  c #2C0C15",
"Y  c #220F18",
"T  c #230F18",
"R  c #370C19",
"E  c #340D1C",
"W  c #3A0E1A",
"Q  c #3B0E1A",
"!  c #211219",
"~  c #27101A",
"^  c #2A131A",
"/  c #29141B",
"(  c #2C151F",
")  c #34101B",
"_  c #3F121E",
"`  c #38141E",
"'  c #361522",
"]  c #341724",
"[  c #381623",
"{  c #381724",
"}  c #391725",
"|  c #3A1724",
" . c #3A1725",
".. c #3B1725",
"X. c #3D1624",
"o. c #3C1725",
"O. c #3E1624",
"+. c #3E1625",
"@. c #391B24",
"#. c #3D1826",
"$. c #401E09",
"%. c #400F1C",
"&. c #4A1519",
"*. c #4B111F",
"=. c #4D101F",
"-. c #5D2B07",
";. c #5B2211",
":. c #602B08",
">. c #612B09",
",. c #682C0B",
"<. c #401422",
"1. c #431524",
"2. c #411726",
"3. c #461726",
"4. c #471727",
"5. c #481020",
"6. c #4B1120",
"7. c #4E1121",
"8. c #491727",
"9. c #4F1A27",
"0. c #471A29",
"q. c #411D28",
"w. c #4B1B28",
"e. c #501121",
"r. c #521524",
"t. c #551525",
"y. c #5F1327",
"u. c #5A1425",
"i. c #541628",
"p. c #571628",
"a. c #5E172A",
"s. c #501E2D",
"d. c #59182A",
"f. c #5A192B",
"g. c #601427",
"h. c #621427",
"j. c #631628",
"k. c #62172A",
"l. c #651528",
"z. c #661429",
"x. c #67162B",
"c. c #681529",
"v. c #69162A",
"b. c #6A162A",
"n. c #6B162A",
"m. c #6B172B",
"M. c #6D172C",
"N. c #6F162C",
"B. c #6E172C",
"V. c #6F172D",
"C. c #61182B",
"Z. c #6D1B2F",
"A. c #6F1B2F",
"S. c #691C2F",
"D. c #71172D",
"F. c #72162C",
"G. c #73162D",
"H. c #72172D",
"J. c #73172D",
"K. c #74162D",
"L. c #74172D",
"P. c #75172D",
"I. c #76172D",
"U. c #76172E",
"Y. c #78162E",
"T. c #72182D",
"R. c #73182E",
"E. c #73192E",
"W. c #74182E",
"Q. c #75192F",
"!. c #76182E",
"~. c #78182F",
"^. c #79182F",
"/. c #681E31",
"(. c #6D1D31",
"). c #731B30",
"_. c #731B31",
"`. c #741B30",
"'. c #751B31",
"]. c #731D32",
"[. c #731E33",
"{. c #741C31",
"}. c #741F34",
"|. c #7B1830",
" X c #781C32",
".X c #47222D",
"XX c #4B212D",
"oX c #48232E",
"OX c #4F232F",
"+X c #522431",
"@X c #562734",
"#X c #6E2034",
"$X c #6E2236",
"%X c #6F2537",
"&X c #672C3C",
"*X c #6F2B3D",
"=X c #692D3D",
"-X c #6F2E3F",
";X c #732236",
":X c #762034",
">X c #752337",
",X c #732437",
"<X c #732539",
"1X c #73273A",
"2X c #772438",
"3X c #772539",
"4X c #75263A",
"5X c #782539",
"6X c #74293B",
"7X c #73293C",
"8X c #722A3C",
"9X c #74293C",
"0X c #76293C",
"qX c #732C3E",
"wX c #732D3F",
"eX c #732E3F",
"rX c #752D3F",
"tX c #722F40",
"yX c #732F41",
"uX c #752E40",
"iX c #713142",
"pX c #733142",
"aX c #733243",
"sX c #743041",
"dX c #743142",
"fX c #753143",
"gX c #743243",
"hX c #743343",
"jX c #733344",
"kX c #773344",
"lX c #7B3446",
"zX c #853B08",
"xX c #863B08",
"cX c #8A3C09",
"vX c #D35A09",
"bX c #D45B0A",
"nX c None",
/* pixels */
"nXnXnXnXnXnXnXnXnXnXnXnXnXnXnXnXnXnXnXnXnXnXnXnXnXnXnXnXnXnX",
"nXnXnXnXnXnXnXnXnXnXnXnXnXnXnXnXnXnXnXnXnXnXnXnXnXnXnXnXnXnX",
"nXnXnXnXnXnXnXnXnXnXnXnXnXnXnXnXnXnXnXnXnXnXnXnXnXnXnXnXnXnX",
"nXnXnXnXnXnXnXnXnXnXnXnXnXnXnXnXnXnXnXnXnXnXnXnXnXnXnXnXnXnX",
"nXnXnXnXnXnXnXnXnXN nXnXnXnXnXnXnXnXnXnXnXnXnXnXnXnXnXnXnXnX",
"nXnXnXnXnXnXnXnXnXN N nXnXnXnXnXnXnXnXnXnXnXnXnXnXnXnXnXnXnX",
"nXnXnXnXnXnXnXnXnXnXnXN N nXnXnXnXnXnXnXnXnXnXnXnXnXnXnXnXnX",
"N N N nXnXnXnXnXnXnXnXnXnXN N N nXnXnXnXnXnXnXnXnXnXnXnXnXnX",
"N N N nXnXnXnXnXnXnXnXnXnXnXN N N nXnXnXnXnXnXnXnXnXnXnXnXnX",
"nXnXnXN N N nXnXnXnXnXnXnXnXnXM M M nXnXnXnXnXnXnXnXnXnXnXnX",
"nXnXnXnXN N N nXnXnXnXnXnXnXN N N N N nXnXnXnXnXnXnXnXnXnXnX",
"nXnXnXnX8 q w 6 c &XlXdXpX@X.XoXw._ Z n nXnXnXnXnXnXnXnXnXnX",
"nXnXnX; ; $ @ O d XX=XpXpXgXfXrX5XS.` A m nXnXnXnXnXnXnXnXnX",
"N r ; nXnXnX3 < : 0 q.dXdXpXqX].,X8XZ._ C nXnXnXnXnXnXnXnXnX",
"nXnXnXnXnXnXOX/ .   @.gXgX7X[.R._.}.Q.j.r.nXnXnXnXnXnXnXnXnX",
"nXnXnXnXnXnXkX+X^ I 9.6X0X:XI.U.U.I.U.U.U.nXnXnXnXnXnXnXnXnX",
"nXnXnXnXnXnXpXiX*XA.F.T.m.v.b.b.b.b.b.N.J.nXnXnXnXnXnXnXnXnX",
"nXnXnXnXnXnXpXhXuX'.Y.z.L l G G H x z 5.U.L.nXnXnXnXnXnXnXnX",
"nXnXnXnXnXnXaXqX<X,Xd.&.,.S o o X u -.;.6.n.!.nXnXnXnXnXnXnX",
"nXnXnXnXnXnXwX;X`.9X] D vXcX* * % F bXxXs y.|.nXnXnXnXnXnXnX",
"nXnXnXnXnXnX).E.W.`.E D vXcX* * % F bXzXs y.|.nXnXnXnXnXnXnX",
"nXnXnXnXnXnXnXG.L.K.R u :.$.- - & f >.S a g.|.nXnXnXnXnXnXnX",
"nXnXnXnXnXnXnXnXL.L.*.g = X # # - - X 4 U h.nXnXnXnXnXnXnXnX",
"nXnXnXnXnXnXnXnXnXJ.H.u.g ; 1 1 , ; , Q n.nXnXnXnXnXnXnXnXnX",
"nXnXnXnXnXnXnXnXnXnX3X%Xt.=.7.7.J 5 %.l.U.nXnXnXnXnXnXnXnXnX",
"nXnXnXnXnXnXnXnXnXnXnXsX2X X^.^.e.W n.~.J.nXnXnXnXnXnXnXnXnX",
"nXnXnXnXnXnXnXnXnXnXyXtX-X$XB.B.b.c.M.D.J.nXnXnXnXnXnXnXnXnX",
"nXnXnXnXnXnXnXnXnXaX4X(.s.0.8.8.) P 1.C.P.nXnXnXnXnXnXnXnXnX",
"nXnXnXnXnXnXnXnXeX1X/.i.+.{ } } b > v <.a.V.nXnXnXnXnXnXnXnX",
"nXnXnXnXnXnXnXjXwX{.p.........o.K - - b O.k.B.nXnXnXnXnXnXnX",
"nXnXnXnXnXnXnXjXwX_.p. .........K - - t ! X.4.nXnXnXnXnXnXnX",
"nXnXnXnXnXnXnX>X#Xf.3.....#.[ T i ; - w C ( nXnXnXnXnXnXnXnX",
"nXnXnXnXnXnXnXnXx.2.} o.o.' ~ 9 @ ; 7 y N nXnXnXnXnXnXnXnXnX",
"nXnXnXnXnXnXnXnXnXo. .| | Y 2 ; ; 7 j N nXnXnXnXnXnXnXnXnXnX",
"nXnXnXnXnXnXnXnXnXnXK k k p nXnXe h N V nXnXnXnXnXnXnXnXnXnX",
"nXnXnXnXnXnXnXnXnXnXnX+ + nXnXnXnXB N nXnXnXnXnXnXnXnXnXnXnX",
"nXnXnXnXnXnXnXnXnXnXnXnXnXnXnXnXnXnXnXnXnXnXnXnXnXnXnXnXnXnX",
"nXnXnXnXnXnXnXnXnXnXnXnXnXnXnXnXnXnXnXnXnXnXnXnXnXnXnXnXnXnX",
"nXnXnXnXnXnXnXnXnXnXnXnXnXnXnXnXnXnXnXnXnXnXnXnXnXnXnXnXnXnX",
"nXnXnXnXnXnXnXnXnXnXnXnXnXnXnXnXnXnXnXnXnXnXnXnXnXnXnXnXnXnX"
};
