/* XPM */
static char *result[] = {
/* columns rows colors chars-per-pixel */
"30 40 224 2 ",
"   c #000202",
".  c #000305",
"X  c #000407",
"o  c #010507",
"O  c #020406",
"+  c #020506",
"@  c #030506",
"#  c #020507",
"$  c #030507",
"%  c #030607",
"&  c #040507",
"*  c #050607",
"=  c #000208",
"-  c #000308",
";  c #000408",
":  c #050508",
">  c #060509",
",  c #050608",
"<  c #060608",
"1  c #070608",
"2  c #070609",
"3  c #070709",
"4  c #080709",
"5  c #090709",
"6  c #08070A",
"7  c #0E070B",
"8  c #0A0808",
"9  c #09080A",
"0  c #0A090B",
"q  c #0D0809",
"w  c #0E0908",
"e  c #0A090C",
"r  c #0C0A0D",
"t  c #0E0C0E",
"y  c #0F0D0F",
"u  c #18070F",
"i  c #110A08",
"p  c #12090B",
"a  c #150B0B",
"s  c #10090D",
"d  c #12080C",
"f  c #110A0E",
"g  c #130A0F",
"h  c #16090D",
"j  c #100D0F",
"k  c #1C0D0F",
"l  c #1A1006",
"z  c #0D0E10",
"x  c #150B10",
"c  c #170B11",
"v  c #110E10",
"b  c #110E11",
"n  c #100F11",
"m  c #120F12",
"M  c #130F12",
"N  c #150C10",
"B  c #160D11",
"V  c #180C12",
"C  c #1A0C12",
"Z  c #1F0C12",
"A  c #121012",
"S  c #121013",
"D  c #141013",
"F  c #151013",
"G  c #151114",
"H  c #171014",
"J  c #1B1317",
"K  c #241307",
"L  c #2F1806",
"P  c #381B07",
"I  c #391A0A",
"U  c #3F1D08",
"Y  c #240914",
"T  c #200E16",
"R  c #280B14",
"E  c #2C0A17",
"W  c #2A0C14",
"Q  c #2C0C15",
"!  c #2D0C15",
"~  c #310D17",
"^  c #320D17",
"/  c #390C1C",
"(  c #3C0D1C",
")  c #3E0D1D",
"_  c #231218",
"`  c #241019",
"'  c #271118",
"]  c #2A1219",
"[  c #2B121A",
"{  c #2A141B",
"}  c #29121C",
"|  c #2C191F",
" . c #34111A",
".. c #37111B",
"X. c #331521",
"o. c #361622",
"O. c #3B1523",
"+. c #381623",
"@. c #3C1523",
"#. c #3F1523",
"$. c #3B1725",
"%. c #3C1725",
"&. c #361C24",
"*. c #3A1825",
"=. c #3A1B24",
"-. c #410F1D",
";. c #430F1D",
":. c #501F10",
">. c #51161C",
",. c #4B210A",
"<. c #552609",
"1. c #5F2B09",
"2. c #703109",
"3. c #773508",
"4. c #451A26",
"5. c #4D1728",
"6. c #4E1728",
"7. c #461F2A",
"8. c #481828",
"9. c #531122",
"0. c #521323",
"q. c #551423",
"w. c #541324",
"e. c #561525",
"r. c #5B1225",
"t. c #5F1426",
"y. c #5D1629",
"u. c #5E172A",
"i. c #5F172B",
"p. c #5E1A2B",
"a. c #5A1A2C",
"s. c #611427",
"d. c #631427",
"f. c #631629",
"g. c #61172B",
"h. c #651429",
"j. c #671529",
"k. c #65162A",
"l. c #64172B",
"z. c #66172B",
"x. c #69152A",
"c. c #6C162B",
"v. c #6D162B",
"b. c #6E162B",
"n. c #6F162B",
"m. c #6F162C",
"M. c #6F172D",
"N. c #6F182D",
"B. c #71172D",
"V. c #73162C",
"C. c #72172D",
"Z. c #73172D",
"A. c #74162D",
"S. c #75162D",
"D. c #74172D",
"F. c #75172D",
"G. c #77162D",
"H. c #75172E",
"J. c #76172E",
"K. c #77172E",
"L. c #70192E",
"P. c #72182E",
"I. c #73182E",
"U. c #72192E",
"Y. c #73192E",
"T. c #75192F",
"R. c #76182E",
"E. c #77182E",
"W. c #78182F",
"Q. c #6D1C30",
"!. c #731B30",
"~. c #771B31",
"^. c #731D32",
"/. c #731E33",
"(. c #731F33",
"). c #771C32",
"_. c #731F34",
"`. c #751F34",
"'. c #4B212D",
"]. c #5F2030",
"[. c #5D2635",
"{. c #5E2937",
"}. c #6A2234",
"|. c #6F2437",
" X c #6C2738",
".X c #6A2D3D",
"XX c #682E3D",
"oX c #6A2E3D",
"OX c #6D2F3F",
"+X c #732034",
"@X c #752035",
"#X c #752237",
"$X c #762337",
"%X c #772338",
"&X c #732438",
"*X c #732639",
"=X c #72273A",
"-X c #742538",
";X c #76263A",
":X c #732B3D",
">X c #762B3E",
",X c #732C3E",
"<X c #732D3F",
"1X c #702E3F",
"2X c #732E3F",
"3X c #732E40",
"4X c #732F41",
"5X c #713041",
"6X c #733042",
"7X c #723142",
"8X c #733142",
"9X c #743142",
"0X c #753243",
"qX c #753344",
"wX c #773344",
"eX c #763445",
"rX c #964109",
"tX c #994209",
"yX c #A84809",
"uX c #AC4A09",
"iX c #BA5008",
"pX c #D0590A",
"aX c #E8630A",
"sX c None",
/* pixels */
"sXsXsXsXsXsXsXsXsXsXsXsXsXsXsXsXsXsXsXsXsXsXsXsXsXsXsXsXsXsX",
"sXsXsXsXsXsXsXsXsXsXsXsXsXsXsXsXsXsXsXsXsXsXsXsXsXsXsXsXsXsX",
"sXsXsXsXsXsXsXsXsXsXsXsXsXsXsXsXsXsXsXsXsXsXsXsXsXsXsXsXsXsX",
"sXsXsXsXsXsXsXsXsXsXD sXsXsXsXsXsXsXsXsXsXsXsXsXsXsXsXsXsXsX",
"D sXsXsXsXsXsXsXsXsXD D D sXsXsXsXsXsXsXsXsXsXsXsXsXsXsXsXsX",
"D sXsXsXsXsXsXsXsXsXsXD D D sXsXsXsXsXsXsXsXsXsXsXsXsXsXsXsX",
"sXD D D sXsXsXsXsXsXsXsXsXsXD D sXsXsXsXsXsXsXsXsXsXsXsXsXsX",
"sXsXsXsXD r sXsXsXsXsXsXsXsXz n m sXsXsXsXsXsXsXsXsXsXsXsXsX",
"sXsXsXsXF t 9 sXsXsXsXsXsXsXsX| J A sXsXsXsXsXsXsXsXsXsXsXsX",
"sXsXsXsXsXM y 3 sXsX8X8X8X8X7XoX&.m D sXsXsXsXsXsXsXsXsXsXsX",
"D sXsXsXsX0 e < O '.wX8X8X8X9XqX]...S A sXsXsXsXsXsXsXsXsXsX",
"D sXsXsX< < * & $ { {.5X9X8X6X:X%Xp.[ H sXsXsXsXsXsXsXsXsXsX",
"sXG y < sXsXsX5 1 2 _ .X0X8X<X^.*X=Xf.' sXsXsXsXsXsXsXsXsXsX",
"D sXsXsXsXsXsX7.N   B XXeX,X_.I.^.`.C.e.sXsXsXsXsXsXsXsXsXsX",
"D sXsXsXsXsXsX5X=.Z  . X>X#XF.H.F.F.H.J.sXsXsXsXsXsXsXsXsXsX",
"sXsXsXsXsXsXsX8XOX}.c.U.L.N.m.m.m.m.m.C.sXsXsXsXsXsXsXsXsXsX",
"sXsXsXsXsXsXsX8XqX;XG.S.) Y Q ! ! R E j.W.sXsXsXsXsXsXsXsXsX",
"sXsXsXsXsXsXsX8X,X-XQ.q.:.L % # X l ,.>.h.D.sXsXsXsXsXsXsXsX",
"sXsXsXsXsXsXsX3X/.$X[.k yXtX1 , - <.pXI ) E.sXsXsXsXsXsXsXsX",
"sXsXsXsXsXsXsX(.Y.~.a.a iXuX1 : = 1.aXP / E.sXsXsXsXsXsXsXsX",
"sXsXsXsXsXsXsXV.Z.K.r.p 3.2.< , ; U rXK ( E.sXsXsXsXsXsXsXsX",
"sXsXsXsXsXsXsXsXZ.R.t.h w w < < < 8 i q ;.E.sXsXsXsXsXsXsXsX",
"sXsXsXsXsXsXsXsXsXH.b.9.u . $ $ , o > -.t.sXsXsXsXsXsXsXsXsX",
"sXsXsXsXsXsXsXsXsXsXT.@X4.] ! Q d 7 ^ x.sXsXsXsXsXsXsXsXsXsX",
"sXsXsXsXsXsXsXsXsXsXsX3X1X|.m.n.~ W v.Z.sXsXsXsXsXsXsXsXsXsX",
"sXsXsXsXsXsXsXsXsXsX2X+X`.).K.K.d.s.H.D.sXsXsXsXsXsXsXsXsXsX",
"sXsXsXsXsXsXsXsXsX,X&XP.k.y.u.i.w.0.g.B.sXsXsXsXsXsXsXsXsXsX",
"sXsXsXsXsXsXsXsX4X&XD.C.6.$.%.+.C x @.l.sXsXsXsXsXsXsXsXsXsX",
"sXsXsXsXsXsXsXsX/.!.D.Z.5.*.o.V 6 3 c #.sXsXsXsXsXsXsXsXsXsX",
"sXsXsXsXsXsXsXsXV.A.M.i.8.X.T 5 & & 1 } sXsXsXsXsXsXsXsXsXsX",
"sXsXsXsXsXsXsXsXZ.F.z.O.o.` 2 < 3 4 4 sXsXsXsXsXsXsXsXsXsXsX",
"sXsXsXsXsXsXsXsXsXsXsXg f s sXsXj b v sXsXsXsXsXsXsXsXsXsXsX",
"sXsXsXsXsXsXsXsXsXsXsX+ @ sXsXsXsXG G sXsXsXsXsXsXsXsXsXsXsX",
"sXsXsXsXsXsXsXsXsXsXsXsXsXsXsXsXsXsXsXsXsXsXsXsXsXsXsXsXsXsX",
"sXsXsXsXsXsXsXsXsXsXsXsXsXsXsXsXsXsXsXsXsXsXsXsXsXsXsXsXsXsX",
"sXsXsXsXsXsXsXsXsXsXsXsXsXsXsXsXsXsXsXsXsXsXsXsXsXsXsXsXsXsX",
"sXsXsXsXsXsXsXsXsXsXsXsXsXsXsXsXsXsXsXsXsXsXsXsXsXsXsXsXsXsX",
"sXsXsXsXsXsXsXsXsXsXsXsXsXsXsXsXsXsXsXsXsXsXsXsXsXsXsXsXsXsX",
"sXsXsXsXsXsXsXsXsXsXsXsXsXsXsXsXsXsXsXsXsXsXsXsXsXsXsXsXsXsX",
"sXsXsXsXsXsXsXsXsXsXsXsXsXsXsXsXsXsXsXsXsXsXsXsXsXsXsXsXsXsX"
};
