/* XPM */
static char *result[] = {
/* columns rows colors chars-per-pixel */
"30 40 79 1 ",
"  c #030507",
". c #050608",
"X c #0A070A",
"o c #0C090C",
"O c #150D07",
"+ c #12070D",
"@ c #12090D",
"# c #1E0B0E",
"$ c #1E1106",
"% c #120E11",
"& c #1B0D13",
"* c #141013",
"= c #1D1116",
"- c #2C1608",
"; c #351A07",
": c #301708",
"> c #3D1D08",
", c #220D13",
"< c #2A0C14",
"1 c #2E0C1A",
"2 c #300B17",
"3 c #350D18",
"4 c #3B0D1C",
"5 c #221117",
"6 c #25121B",
"7 c #2C141C",
"8 c #33141F",
"9 c #3B131E",
"0 c #2C1420",
"q c #341522",
"w c #3B1725",
"e c #361C24",
"r c #3E1926",
"t c #421F07",
"y c #410F1D",
"u c #431515",
"i c #4B1A13",
"p c #43101D",
"a c #49101F",
"s c #452107",
"d c #5F2A09",
"f c #652D09",
"g c #6C3009",
"h c #7D3709",
"j c #421726",
"k c #4B1424",
"l c #4E1728",
"z c #441F29",
"x c #541223",
"c c #5B1424",
"v c #5C1629",
"b c #631527",
"n c #64172B",
"m c #6C162B",
"M c #62192C",
"N c #6A192D",
"B c #74172D",
"V c #75182E",
"C c #741C31",
"Z c #4E222E",
"A c #522431",
"S c #672132",
"D c #682334",
"F c #662C3B",
"G c #6B2C3C",
"H c #752136",
"J c #792136",
"K c #742639",
"L c #742C3E",
"P c #6F2F40",
"I c #732F41",
"U c #6E3040",
"Y c #733142",
"T c #793345",
"R c #83390A",
"E c #D45B09",
"W c #DC5E0A",
"Q c #E4610A",
"! c None",
/* pixels */
"!!!!!!!!!!!!!!!!!!!!!!!!!!!!!!",
"!!!!!!!!!!!!!!!!!!!!!!!!!!!!!!",
"!!!!!!!!!!!!!!!!!!!!!!!!!!!!!!",
"!!!!!!!!!!*!!!!!!!!!!!!!!!!!!!",
"!!!!!!!!!!**!!!!!!!!!!!!!!!!!!",
"*!!!!!!!!!!!**!!!!!!!!!!!!!!!!",
"!***!!!!!!!!!!o%**!!!!!!!!!!!!",
"!!**!!!!!!!!!!Zee87!!!!!!!!!!!",
"!!!!%oo!!!YYYYGUGCk=!!!!!!!!!!",
".!!!oo.. &GYYYTLHKSk5!!!!!!!!!",
".o!!.... oZFYYLHVKHm9!!!!!!!!!",
"!*%X!!!oo .ZYLJBmVVVm!!!!!!!!!",
"**!!!!!Z7  9JJVVVVVVV!!!!!!!!!",
"*!!!!!!TZ5,xmxxxxcxcmV!!!!!!!!",
"!!!!!!!YGGNBc#+o+o+,bVV!!!!!!!",
"!!!!!!!YLKKliR;   sRuxV!!!!!!!",
"!!!!!!!LHBK7>Qf . hW-4V!!!!!!!",
"!!!!!!!CVVC1tWd . hE-4V!!!!!!!",
"!!!!!!!!BBB1$g: . >fOyV!!!!!!!",
"!!!!!!!!!BBy+.......@aV!!!!!!!",
"!!!!!!!!!!Bmao  .. +xb!!!!!!!!",
"!!!!!!!!!!!JDr943o#ym!!!!!!!!!",
"!!!!!!!!!!!LILCVm<4VV!!!!!!!!!",
"!!!!!!!!!!YKCCCVVbbBV!!!!!!!!!",
"!!!!!!!!!IKCmvvvvkxnB!!!!!!!!!",
"!!!!!!!!!ICBMjwrq@&rMB!!!!!!!!",
"!!!!!!!!!LCvjwwwq@.&jnV!!!!!!!",
"!!!!!!!!!KMlwwwrw@ o6kM!!!!!!!",
"!!!!!!!!!Njwwwwrq@ .*7r!!!!!!!",
"!!!!!!!!!mjrwwr7&..X%7w!!!!!!!",
"!!!!!!!!!njwrw8&...o%0j!!!!!!!",
"!!!!!!!!!!wwwq&o..o*!!!!!!!!!!",
"!!!!!!!!!!!5&&o!!o**!!!!!!!!!!",
"!!!!!!!!!!!!  !!!***!!!!!!!!!!",
"!!!!!!!!!!!!!!!!!!!!!!!!!!!!!!",
"!!!!!!!!!!!!!!!!!!!!!!!!!!!!!!",
"!!!!!!!!!!!!!!!!!!!!!!!!!!!!!!",
"!!!!!!!!!!!!!!!!!!!!!!!!!!!!!!",
"!!!!!!!!!!!!!!!!!!!!!!!!!!!!!!",
"!!!!!!!!!!!!!!!!!!!!!!!!!!!!!!"
};
