/* XPM */
static char *result[] = {
/* columns rows colors chars-per-pixel */
"30 40 224 2 ",
"   c #000304",
".  c #000307",
"X  c #000407",
"o  c #020506",
"O  c #030506",
"+  c #020507",
"@  c #030507",
"#  c #020607",
"$  c #030607",
"%  c #040507",
"&  c #040607",
"*  c #050607",
"=  c #000208",
"-  c #030508",
";  c #050508",
":  c #050608",
">  c #060608",
",  c #070608",
"<  c #070609",
"1  c #070709",
"2  c #090609",
"3  c #080709",
"4  c #090709",
"5  c #0A050B",
"6  c #08070A",
"7  c #09080A",
"8  c #0B080B",
"9  c #0D090C",
"0  c #0F090D",
"q  c #0C0A0C",
"w  c #0D0A0D",
"e  c #0C0B0D",
"r  c #0D0B0D",
"t  c #0E0C0F",
"y  c #130D07",
"u  c #10080B",
"i  c #160A0B",
"p  c #10080C",
"a  c #12080C",
"s  c #110A0F",
"d  c #120B0E",
"f  c #14090E",
"g  c #0F0E10",
"h  c #110F11",
"j  c #120F11",
"k  c #120F12",
"l  c #130F12",
"z  c #1B0810",
"x  c #1E0911",
"c  c #1B0C11",
"v  c #190C12",
"b  c #190C13",
"n  c #1C0D14",
"m  c #1C0F14",
"M  c #101012",
"N  c #141013",
"B  c #151114",
"V  c #161014",
"C  c #1B1015",
"Z  c #1B1216",
"A  c #1E1118",
"S  c #271507",
"D  c #241208",
"F  c #371A07",
"G  c #3F1E07",
"H  c #361A08",
"J  c #3E1D09",
"K  c #220911",
"L  c #220A11",
"P  c #240914",
"I  c #200E16",
"U  c #220F18",
"Y  c #260F18",
"T  c #300C16",
"R  c #320D17",
"E  c #380E19",
"W  c #390D1B",
"Q  c #3C0D1B",
"!  c #3C0F1B",
"~  c #380D1D",
"^  c #211117",
"/  c #271017",
"(  c #261019",
")  c #27101A",
"_  c #27131A",
"`  c #2B121D",
"'  c #2E141D",
"]  c #37131D",
"[  c #36161F",
"{  c #351420",
"}  c #361622",
"|  c #361623",
" . c #391624",
".. c #381725",
"X. c #391725",
"o. c #3B1725",
"O. c #3D1725",
"+. c #381825",
"@. c #3D1827",
"#. c #381C24",
"$. c #47111D",
"%. c #4B1618",
"&. c #482306",
"*. c #512508",
"=. c #592809",
"-. c #5C2909",
";. c #65290E",
":. c #6B2F09",
">. c #401420",
",. c #411726",
"<. c #4B1321",
"1. c #4C1120",
"2. c #4A1422",
"3. c #491727",
"4. c #4A1727",
"5. c #4D1727",
"6. c #4F1728",
"7. c #521222",
"8. c #551222",
"9. c #561727",
"0. c #5B1326",
"q. c #5D1326",
"w. c #5C1426",
"e. c #5F1628",
"r. c #5E1728",
"t. c #5C192C",
"y. c #5E1B2C",
"u. c #611326",
"i. c #611427",
"p. c #631427",
"a. c #601628",
"s. c #61162A",
"d. c #62162A",
"f. c #641428",
"g. c #661629",
"h. c #64172A",
"j. c #65172A",
"k. c #65172B",
"l. c #681428",
"z. c #69152A",
"x. c #6A172B",
"c. c #6C162B",
"v. c #6E162B",
"b. c #6F162B",
"n. c #6A172C",
"m. c #6B172C",
"M. c #6D172C",
"N. c #6F172C",
"B. c #71162C",
"V. c #70172D",
"C. c #71172D",
"Z. c #73162C",
"A. c #72172D",
"S. c #73172D",
"D. c #74162C",
"F. c #74162D",
"G. c #75162D",
"H. c #74172D",
"J. c #75172D",
"K. c #75172E",
"L. c #76172E",
"P. c #7A172F",
"I. c #73182E",
"U. c #73192F",
"Y. c #731A2F",
"T. c #75182E",
"R. c #75192F",
"E. c #78182F",
"W. c #6C1F32",
"Q. c #761A30",
"!. c #721D32",
"~. c #731D32",
"^. c #731F33",
"/. c #751D32",
"(. c #761C32",
"). c #741E33",
"_. c #781C32",
"`. c #502632",
"'. c #542532",
"]. c #552532",
"[. c #592634",
"{. c #5B2835",
"}. c #612938",
"|. c #6D2F3F",
" X c #732135",
".X c #732136",
"XX c #732236",
"oX c #732639",
"OX c #73273A",
"+X c #742438",
"@X c #762438",
"#X c #77273B",
"$X c #78253A",
"%X c #73283A",
"&X c #73283B",
"*X c #76283B",
"=X c #732A3C",
"-X c #732B3D",
";X c #75293C",
":X c #752A3C",
">X c #742A3D",
",X c #752B3D",
"<X c #702C3E",
"1X c #732C3E",
"2X c #732D3F",
"3X c #732E40",
"4X c #742F41",
"5X c #713041",
"6X c #733041",
"7X c #733142",
"8X c #733242",
"9X c #733243",
"0X c #733343",
"qX c #743142",
"wX c #743143",
"eX c #743243",
"rX c #773244",
"tX c #A14509",
"yX c #A64809",
"uX c #AE4B09",
"iX c #B44E08",
"pX c #D95D0A",
"aX c #E1600A",
"sX c None",
/* pixels */
"sXsXsXsXsXsXsXsXsXsXsXsXsXsXsXsXsXsXsXsXsXsXsXsXsXsXsXsXsXsX",
"sXsXsXsXsXsXsXsXsXsXsXsXsXsXsXsXsXsXsXsXsXsXsXsXsXsXsXsXsXsX",
"sXsXsXsXsXsXsXsXsXsXsXsXsXsXsXsXsXsXsXsXsXsXsXsXsXsXsXsXsXsX",
"sXsXsXsXsXsXsXsXsXsXsXsXsXsXsXsXsXsXsXsXsXsXsXsXsXsXsXsXsXsX",
"sXsXsXsXsXsXsXsXN sXsXsXsXsXsXsXsXsXsXsXsXsXsXsXsXsXsXsXsXsX",
"sXsXsXsXsXsXsXsXsXN N N sXsXsXsXsXsXsXsXsXsXsXsXsXsXsXsXsXsX",
"sXsXsXsXsXsXsXsXsXsXN N sXsXsXsXsXsXsXsXsXsXsXsXsXsXsXsXsXsX",
"N N N sXsXsXsXsXsXsXsXsXN N N sXsXsXsXsXsXsXsXsXsXsXsXsXsXsX",
"sXsXsXl 7 sXsXsXsXsXsXsXsXg h M sXsXsXsXsXsXsXsXsXsXsXsXsXsX",
"sXsXsXk 6 > sXsXsXsXsXsXsX`.#.] / sXsXsXsXsXsXsXsXsXsXsXsXsX",
"sXsXsXsX> > % sX5XqX7X7X7X6X-X!.>.C sXsXsXsXsXsXsXsXsXsXsXsX",
"sXsXsX> > > % 9 {.rX7X7X9X&X).>XW.<.V sXsXsXsXsXsXsXsXsXsXsX",
"N q > sXsXO o 3 _ '.eX8X%X~.I. X(.g.2.sXsXsXsXsXsXsXsXsXsXsX",
"N q sXsXsX_ m >   [ ,X:X/.G.K.J.J.K.L.sXsXsXsXsXsXsXsXsXsXsX",
"sXsXsXsXsXwX].d 2 ! I.M.c.c.c.c.c.b.S.sXsXsXsXsXsXsXsXsXsXsX",
"sXsXsXsXsXrX|.[.9.l.f.P x L L L z W S.K.sXsXsXsXsXsXsXsXsXsX",
"sXsXsXsXsX0X4X#X$Xt.%.:.S X + # &.;.$.z.sXsXsXsXsXsXsXsXsXsX",
"sXsXsXsXsX2XoXU.*X+.F aX-.= ; , yXiXi 0.sXsXsXsXsXsXsXsXsXsX",
"sXsXsXsXsXY.U.S.Q.~ H pX=.= : , tXuXi 0.sXsXsXsXsXsXsXsXsXsX",
"sXsXsXsXsXsXZ.S.L.Q y *.D - > > J G u q.sXsXsXsXsXsXsXsXsXsX",
"sXsXsXsXsXsXsXS.K.8.K = X $ & > . 5 T i.sXsXsXsXsXsXsXsXsXsX",
"sXsXsXsXsXsXsXsXS.R.r.c p a u < 4 R v.sXsXsXsXsXsXsXsXsXsXsX",
"sXsXsXsXsXsXsXsXsX;X<X}.y.u.7.a E z.S.sXsXsXsXsXsXsXsXsXsXsX",
"sXsXsXsXsXsXsXsXsX=X+X@X_.P.B.1.p.E.S.sXsXsXsXsXsXsXsXsXsXsX",
"sXsXsXsXsXsXsXsX1X.XD.F.x.k.h.w.a.m.S.sXsXsXsXsXsXsXsXsXsXsX",
"sXsXsXsXsXsXsX3X^.A.C.N.6.O.{ f ( 6.N.sXsXsXsXsXsXsXsXsXsXsX",
"sXsXsXsXsXsX1X^.T.s.4.4.,.` s > 8 Y 5.n.sXsXsXsXsXsXsXsXsXsX",
"sXsXsXsXsXOXXXA.d.4...X.@.) * : O w ' j.sXsXsXsXsXsXsXsXsXsX",
"sXsXsXsXsXsXH.V.3.X.o.o.| I > > 1 r ^ e.sXsXsXsXsXsXsXsXsXsX",
"sXsXsXsXsXsXsXV.4.X.o. .n 3 > > e A } sXsXsXsXsXsXsXsXsXsXsX",
"sXsXsXsXsXsXsXsXsXU b v 0 sXsXt j Z sXsXsXsXsXsXsXsXsXsXsXsX",
"sXsXsXsXsXsXsXsXsXsX@ @ sXsXsXB N sXsXsXsXsXsXsXsXsXsXsXsXsX",
"sXsXsXsXsXsXsXsXsXsXsXsXsXsXsXsXsXsXsXsXsXsXsXsXsXsXsXsXsXsX",
"sXsXsXsXsXsXsXsXsXsXsXsXsXsXsXsXsXsXsXsXsXsXsXsXsXsXsXsXsXsX",
"sXsXsXsXsXsXsXsXsXsXsXsXsXsXsXsXsXsXsXsXsXsXsXsXsXsXsXsXsXsX",
"sXsXsXsXsXsXsXsXsXsXsXsXsXsXsXsXsXsXsXsXsXsXsXsXsXsXsXsXsXsX",
"sXsXsXsXsXsXsXsXsXsXsXsXsXsXsXsXsXsXsXsXsXsXsXsXsXsXsXsXsXsX",
"sXsXsXsXsXsXsXsXsXsXsXsXsXsXsXsXsXsXsXsXsXsXsXsXsXsXsXsXsXsX",
"sXsXsXsXsXsXsXsXsXsXsXsXsXsXsXsXsXsXsXsXsXsXsXsXsXsXsXsXsXsX",
"sXsXsXsXsXsXsXsXsXsXsXsXsXsXsXsXsXsXsXsXsXsXsXsXsXsXsXsXsXsX"
};
