/* XPM */
static char *result[] = {
/* columns rows colors chars-per-pixel */
"40 40 156 2 ",
"   c #000001",
".  c #0F0B0C",
"X  c #120E0F",
"o  c #0E0F11",
"O  c #140E10",
"+  c #111113",
"@  c #1B1415",
"#  c #171719",
"$  c #1A1A1C",
"%  c #271211",
"&  c #2A1514",
"*  c #2B1B1B",
"=  c #351E1C",
"-  c #3C201D",
";  c #1F2022",
":  c #282425",
">  c #2E2829",
",  c #222223",
"<  c #3F2422",
"1  c #343537",
"2  c #3C3C3D",
"3  c #3B3232",
"4  c #45231E",
"5  c #462420",
"6  c #4B2723",
"7  c #4E2A26",
"8  c #4A2D2C",
"9  c #422C2B",
"0  c #572D27",
"q  c #582C26",
"w  c #542D2A",
"e  c #582E29",
"r  c #57302D",
"t  c #5B312D",
"y  c #503334",
"u  c #563B3E",
"i  c #5B3A3B",
"p  c #61342F",
"a  c #633631",
"s  c #6C3630",
"d  c #663833",
"f  c #6D3A35",
"g  c #6F3E39",
"h  c #703C37",
"j  c #7A3E37",
"k  c #703D38",
"l  c #793F39",
"z  c #72433E",
"x  c #7B423C",
"c  c #3E3F40",
"v  c #464749",
"b  c #4B4A4B",
"n  c #534047",
"m  c #564249",
"M  c #5F464C",
"N  c #4E4F51",
"B  c #5B4650",
"V  c #5E4B53",
"C  c #545454",
"Z  c #575758",
"A  c #5F505D",
"S  c #5B5B5C",
"D  c #6A4541",
"F  c #734641",
"G  c #744844",
"H  c #71524E",
"J  c #60505A",
"K  c #745754",
"L  c #7E5955",
"P  c #434F65",
"I  c #445066",
"U  c #4B5267",
"Y  c #4B576E",
"T  c #4C586F",
"R  c #4E5B72",
"E  c #505C71",
"W  c #675561",
"Q  c #655865",
"!  c #6D5965",
"~  c #605B6D",
"^  c #6E5D6A",
"/  c #715D65",
"(  c #57637A",
")  c #5B677C",
"_  c #616162",
"`  c #6B6C6D",
"'  c #75616E",
"]  c #776571",
"[  c #736F7E",
"{  c #777677",
"}  c #74707F",
"|  c #7C7C7D",
" . c #9A544C",
".. c #805C57",
"X. c #815D59",
"o. c #806764",
"O. c #826864",
"+. c #836C76",
"@. c #8D7471",
"#. c #837079",
"$. c #576580",
"%. c #5E6780",
"&. c #5B6882",
"*. c #626F87",
"=. c #606F8C",
"-. c #667186",
";. c #62718E",
":. c #69758B",
">. c #667490",
",. c #6C7692",
"<. c #6C7B96",
"1. c #6E7E9E",
"2. c #707B90",
"3. c #727F98",
"4. c #6E7FA0",
"5. c #7F8080",
"6. c #758195",
"7. c #71809D",
"8. c #7A869D",
"9. c #7F8A9F",
"0. c #6F81A1",
"q. c #7282A2",
"w. c #7D8AA2",
"e. c #838283",
"r. c #8B8584",
"t. c #8C8B8B",
"y. c #90908F",
"u. c #868F9D",
"i. c #959695",
"p. c #9E9392",
"a. c #91939D",
"s. c #9A9A9A",
"d. c #A49D9C",
"f. c #818DA5",
"g. c #818FAC",
"h. c #8593AE",
"j. c #8895AF",
"k. c #8996B1",
"l. c #8C99B3",
"z. c #929EB6",
"x. c #94A1B9",
"c. c #9AA5BA",
"v. c #9FAABF",
"b. c #A5A4A4",
"n. c #A7AAAA",
"m. c #ACACAC",
"M. c #AEB0B0",
"N. c #B2B2B2",
"B. c #B9B9B9",
"V. c #9AA8C0",
"C. c #A2ADC2",
"Z. c #C3C4C5",
"A. c #DBDBDB",
"S. c #E6E7E7",
"D. c #F6F6F6",
"F. c None",
/* pixels */
"F.F.F.F.F.F.F.F.F.F.F.F.F.F.F.F.F.F.F.F.F.F.F.F.F.F.F.F.F.F.F.F.F.F.F.F.F.F.F.F.",
"F.F.F.F.F.F.F.F.F.F.F.F.F.F.F.F.F.F.F.F.F.F.F.F.F.F.F.F.F.F.F.F.F.F.F.F.F.F.F.F.",
"F.F.F.F.F.F.F.F.F.F.F.F.F.F.F.F.F.F.F.F.F.F.F.F.F.F.F.F.F.F.F.F.F.F.F.F.F.F.F.F.",
"F.F.F.F.F.F.F.F.F.F.F.F.F.F.F.F.F.F.F.F.F.F.F.F.F.F.F.F.F.F.F.F.F.F.F.F.F.F.F.F.",
"F.F.F.F.F.F.F.F.F.F.F.F.F.F.F.F.F.F.F.F.F.F.F.F.F.F.F.F.F.F.F.F.F.F.F.F.F.F.F.F.",
"F.F.F.F.F.F.F.F.F.F.F.F.F.F.F.F.j.j.j.j.j.j.j.j.F.F.F.F.F.F.F.F.F.F.F.F.F.F.F.F.",
"F.F.F.F.F.F.F.F.F.F.F.F.F.F.F.F.k.j.j.j.j.j.j.j.F.F.F.F.F.F.F.F.F.F.F.F.F.F.F.F.",
"F.F.F.F.F.F.F.F.F.F.j.j.k.k.F.T w.j.h.j.j.h.k.w.T F.k.j.j.j.F.F.F.F.F.F.F.F.F.F.",
"F.F.F.F.F.F.F.F.F.j.j.j.j.j.f.T 8.x.z.z.z.x.x.w.T f.j.j.j.j.j.F.F.F.F.F.F.F.F.F.",
"F.F.F.F.F.F.F.F.F.j.j.j.j.j.f.T f.C.v.C.V.V.C.w.R f.j.j.j.j.j.F.F.F.F.F.F.F.F.F.",
"I 6.k.k.j.j.l.*.( j.j.j.j.k.g.Y >.w.q.q.q.w.w.>.Y f.j.j.j.j.j.( *.k.j.j.j.k.6.I ",
"I 7.k.j.j.j.k.*.) v.C.v.v.C.z.R &.0.1.4.4.4.q.&.R z.C.v.v.v.v.) *.k.j.j.j.l.7.I ",
"I 3.k.j.j.h.k.*.( j.k.l.l.l.g.Y >.0.0.4.1.4.q.;.R g.l.k.l.l.k.( *.k.j.h.j.k.3.I ",
"I 8.x.x.z.z.z.:.R 1.1.1.1.1.<.Y >.0.0.0.4.q.q.;.Y <.4.4.1.1.1.R :.x.z.z.z.x.8.I ",
"I f.C.V.V.V.C.<.R 1.1.1.1.4.<.U &.,.,.,.,.,.,.&.U ,.4.4.1.1.1.R <.C.C.V.v.C.g.P ",
"I >.w.q.q.w.w.&.R 1.1.1.3.4.,.u 8 y i i i i y 8 u ,.3.1.1.1.1.R &.w.q.q.w.q.>.I ",
"I =.4.4.4.4.4.~ u M B n m B D e 5 6 e e e e 6 4 t M D m n M B u ~ 4.1.1.1.4.=.P ",
"I >.q.4.4.4.q.Q q q q 5 7 a t a w t a a a a t w p p p w 5 w w 0 ~ 0.q.q.q.q.>.P ",
"I $.;.=.=.=.;.A e a t 7 t h h f a a k h h h d p f f k t w t p t W =.&.>.&.>.$.P ",
"P T E E E E E J z F G a d f f f a t a a p p t t f f f a t f f h A R R R E E Y P ",
"P u.c.z.c.c.c.a.e.r.d.H p h f f a = X X O O X * f f h d p f f f #.c.x.c.c.c.w.I ",
"P 3.g.g.g.g.g.u.i.n.M.K p f f h = : C e.e.m.Z.r.& d h a p f f s ] h.h.w.g.h.<.I ",
"I =.4.4.4.3.3.-.O.@.@.D a h a < > S 2._ _ | b.n.{ 9 t d p f f f ^ 4.1.1.1.3.=.P ",
"I >.4.4.4.4.4.^ s s s p a h a X c y.5.      , i.S.; 6 d p f f f ^ 4.4.4.4.q.;.I ",
"I >.4.4.4.4.4.^ f f f p a f e # b y.e.$ $ # 2 i.A.2 8 a p h F h ^ 0.4.4.1.0.;.I ",
"P =.4.3.4.3.4.^ f f h p a w # b t.m.m.s.s.s.s.m.B.A.b & a F p...! 0.4.1.1.0.;.I ",
"P T R E E T R V f f f a d 7 o C s.M.m.N.N.B.N.m.B.D.b % a G d.X.M R R R R R Y P ",
"P -.3.3.3.3.8.^ f f f t d w O C i.M.M.b._ C e.m.B.D.N % p G d.X.! 6.3.3.6.6.-.I ",
"I w.V.c.c.V.V.#.s f f a d 7 o C s.M.N.s.#   Z N.B.A.v & p G d.X.+.V.c.c.c.v.f.P ",
"I ;.q.4.4.3.4.^ f f g p d 7 O C i.M.M.s.$   Z N.m.m.1 & p G d.X.^ 0.4.4.4.q.;.P ",
"I ;.q.3.4.4.q.^ f f g t d 7 o C p.N.M.s.$   S N.m.m.1 & p G d.X.! 0.4.3.1.4.=.U ",
"P >.q.4.4.4.4.^ f f f a d 7 O C i.N.M.b.5.| i.m.m.m.1 & a g L x ^ 0.4.4.1.q.;.P ",
"I ;.q.4.4.4.q.^ f h f t f 7 o C s.B.N.N.B.B.B.N.N.M.1 & a f f s ^ q.q.q.q.q.;.P ",
"P $.;.;.=.*.>.W s f s a d r * c ` | | | | | | | | { 3 - a f f f W ;.=.=.=.=.$.P ",
"P Y E E E E E J x F G a a f a @ X X O O X O X X X + w d p f f f V R R R T E T P ",
"P 9.v.c.c.c.z.a.e.r.d.H a f f a w r a a p a r w a a d a p f f f +.c.c.c.c.v.w.I ",
"P <.g.g.g.g.h.u.i.n.M.K p f f h a a h f h h d a h h g a p f h s ] h.w.h.w.k.<.I ",
"P =.4.4.4.4.1.-.o.@.+.D p f f f a d f f f f a p f d f a a d d f ^ 0.1.1.4.0.;.I ",
"P =.q.3.4.4.4.' l l l a f x x x d d x x x x d a x x x f a x x x ' 0.1.1.4.0.;.I ",
"P =.q.4.4.3.4.+. . . .f l  . . .f x  . . . .x f  . . .x f  . . .+.1.0.1.4.0.;.P "
};
