/* XPM */
static char *result[] = {
/* columns rows colors chars-per-pixel */
"40 40 146 2 ",
"   c #000E3D",
".  c #6B2D2D",
"X  c #65343F",
"o  c #703B3F",
"O  c #001445",
"+  c #0D2145",
"@  c #192849",
"#  c #113E5E",
"$  c #2A344B",
"%  c #343D55",
"&  c #323C59",
"*  c #483D57",
"=  c #643541",
"-  c #6D3746",
";  c #6F3E43",
":  c #713E42",
">  c #394157",
",  c #3A445C",
"<  c #3D495F",
"1  c #3C4460",
"2  c #3E4B61",
"3  c #434A5F",
"4  c #48495C",
"5  c #564556",
"6  c #594C5E",
"7  c #61434E",
"8  c #694149",
"9  c #754246",
"0  c #7B444A",
"q  c #674956",
"w  c #644653",
"e  c #444B62",
"r  c #484F66",
"t  c #495166",
"y  c #4B536A",
"u  c #455067",
"i  c #565C6B",
"p  c #575D72",
"a  c #765661",
"s  c #5C6170",
"d  c #596179",
"f  c #62677C",
"g  c #656A7F",
"h  c #99523B",
"j  c #C56A39",
"k  c #844241",
"l  c #844E48",
"z  c #965A4D",
"x  c #9B5C4B",
"c  c #9A5541",
"v  c #9B5C5C",
"b  c #B25F49",
"n  c #A55F53",
"m  c #9E6150",
"M  c #B46043",
"N  c #B86340",
"B  c #B2614D",
"V  c #A56155",
"C  c #B76958",
"Z  c #9C737F",
"A  c #C16E4B",
"S  c #CA784D",
"D  c #C57B5C",
"F  c #CA7D5A",
"G  c #CB815E",
"H  c #CE8F5B",
"J  c #D18157",
"K  c #DD945F",
"L  c #E59756",
"P  c #E59A5C",
"I  c #E99E5E",
"U  c #C08861",
"Y  c #CA8A6F",
"T  c #D08560",
"R  c #CE9361",
"E  c #DD9560",
"W  c #CF8E70",
"Q  c #CD937B",
"!  c #E59D63",
"~  c #ECA363",
"^  c #F2A763",
"/  c #F8AF67",
"(  c #FCB368",
")  c #666B82",
"_  c #6A6F84",
"`  c #6C7186",
"'  c #727784",
"]  c #71768B",
"[  c #74798C",
"{  c #797E95",
"}  c #9F7985",
"|  c #A17780",
" . c #A27A87",
".. c #7D8290",
"X. c #96818E",
"o. c #81869C",
"O. c #91959D",
"+. c #B3959A",
"@. c #858AA2",
"#. c #878CA8",
"$. c #8C91A6",
"%. c #8D92AC",
"&. c #9193A3",
"*. c #979CA5",
"=. c #979CA9",
"-. c #9297B0",
";. c #949AB3",
":. c #9A9FB7",
">. c #BA9EA3",
",. c #99A0A8",
"<. c #9DA3B5",
"1. c #9CA1B8",
"2. c #A8ADB5",
"3. c #A3A8BB",
"4. c #CDA291",
"5. c #D4AC9B",
"6. c #D2A592",
"7. c #D3B9AC",
"8. c #D2BEB4",
"9. c #D7C4B9",
"0. c #D7C0B4",
"q. c #A9AEC2",
"w. c #AFB5C5",
"e. c #B0B5C4",
"r. c #B5BAC9",
"t. c #BABFCD",
"y. c #B5BAC2",
"u. c #BDC2C9",
"i. c #D7CDC5",
"p. c #D8D3CD",
"a. c #C5CCD8",
"s. c #CACFD8",
"d. c #CCD3DE",
"f. c #D2D7DE",
"g. c #D4D9DF",
"h. c #DAE1DC",
"j. c #D6DBE3",
"k. c #DCE1E7",
"l. c #DDE2E8",
"z. c #DFF4F3",
"x. c #E0E5EB",
"c. c #E3E8EE",
"v. c #E7ECF0",
"b. c #ECF1F6",
"n. c #E1FDFD",
"m. c None",
/* pixels */
"m.m.m.m.m.m.m.m.m.m.m.m.m.m.m.m.m.m.m.m.m.m.m.m.m.m.m.m.m.m.m.m.m.m.m.m.m.m.m.m.",
"m.m.m.m.m.m.m.m.m.m.m.m.m.m.m.m.m.m.m.m.m.m.m.m.m.m.m.m.m.m.m.m.m.m.m.m.m.m.m.m.",
"m.m.m.m.m.m.m.m.m.m.m.m.m.m.m.m.m.m.m.m.m.m.m.m.m.m.m.m.m.m.m.m.m.m.m.m.m.m.m.m.",
"m.m.m.m.m.m.m.m.m.m.m.m.m.m.m.m.m.m.m.m.m.m.m.m.m.m.m.m.m.m.m.m.m.m.m.m.m.m.m.m.",
"m.m.m.m.m.m.m.m.m.m.m.m.m.m.m.m.m.m.m.m.m.m.m.m.m.m.m.m.m.m.m.m.m.m.m.m.m.m.m.m.",
"m.m.m.m.m.m.m.m.m.m.m.m.m.m.m.m.m.m.m.m.m.m.m.m.m.m.m.m.m.m.m.m.m.m.m.m.m.m.m.m.",
"m.m.m.m.m.m.m.m.m.m.m.m.m.m.m.m.m.m.m.m.m.m.m.m.m.m.m.m.m.m.m.m.m.m.m.m.m.m.m.m.",
"m.m.m.m.m.m.m.m.m.m.3 t 3 3 e r 3 m.m.m.m.m.m.3 t e 3 3 t 3 m.m.m.m.m.m.m.m.m.m.",
"m.m.m.m.m.m.m.m.m.e 3 e > 3 r y 3 m.m.m.m.m.m.3 y r 3 , e 3 3 m.m.m.m.m.m.m.m.m.",
"m.m.m.m.m.m.m.m.e y 3 t p y 3 r 3 m.m.m.m.m.m.3 r 3 t p t 3 y e m.m.m.m.m.m.m.m.",
"m.m.m.m.m.m.m.3 3 3 $ g $._ , r 3 m.m.m.m.m.m.3 r > _ $.g $ 3 3 3 m.m.m.m.m.m.m.",
"m.m.m.m.m.m.m.r e t g o.:.] % r 3 m.m.m.m.m.m.3 r % ] :.@.f t e t m.m.m.m.m.m.m.",
"m.m.m.m.m.m.m.3 , p $.3.-._ % r 3 m.m.m.m.m.m.3 r % ` ;.1.$.p , 3 m.m.m.m.m.m.m.",
"m.m.m.m.m.m.e 3 O , @.:.%._ % r 2 m.m.m.m.m.m.< r > _ %.;.@.3 O e e m.m.m.m.m.m.",
"m.m.m.m.m.3 y 3 s o.<.2.3.[ % e 4 m.m.m.m.m.m.4 e % [ 3.2.<.o.s 3 r 3 m.m.m.m.m.",
"m.m.m.m.m.3 , 3 2.g.g.g.j.O.@ , 5 ; ; 9 ; : : 5 < @ &.g.j.f.g.2.e , 3 m.m.m.m.m.",
"m.m.m.m.m.3 & 3 u.b.v.v.l.,.O # * - - - = - - * # O =.c.v.c.b.u.3 & 3 m.m.m.m.m.",
"m.m.m.m.m.3 & 3 y.c.l.l.l.,.+ , 5 ; o ; 9 o ; 5 2 + *.l.x.l.c.y.3 & 3 m.m.m.m.m.",
"m.m.m.m.m.3 , 3 =.u.r.r.w.X.x G R H H H H H H R U z X.e.r.r.u.=.3 < 3 m.m.m.m.m.",
"m.m.m.m.m.3 e 3 { -.%.;.<.} A ^ ( ( ( ( ( ( ( ( ~ A  .<.;.%.-.{ 3 e 3 m.m.m.m.m.",
"m.m.m.m.m.3 e 3 ..1.#.w.j.>.N ~ ( / / / / / / ( ~ N >.g.w.#.:.@.3 e 3 m.m.m.m.m.",
"m.m.m.m.m.3 u 3 ) %.w.a.a.+.b K I L P ! L P ! ~ K M +.s.a.w.#.) 3 u 3 m.m.m.m.m.",
"m.m.m.m.m.3 u < + ' f.d.=.} B F G G G G G G G G F B Z -.d.f.' + 3 t 3 m.m.m.m.m.",
"m.m.m.m.m.m.3 u > i &.1.-.} b A 5.p.4.Y i.8.D F F B } ;.<.O.i & t 3 m.m.m.m.m.m.",
"m.m.m.m.m.m.m.3 e <   d $.Z B j 9.n.7.Q v.h.G S D B | $.p O , e 3 m.m.m.m.m.m.m.",
"m.m.m.m.m.m.m.m.e y , 6 a v C j 9.n.7.Q z.h.G S U C v a 6 1 y 3 m.m.m.m.m.m.m.m.",
"m.m.m.m.m.m.m.m.m.e e 5 . k V A 5.p.6.W p.0.T F D n k . 5 2 e m.m.m.m.m.m.m.m.m.",
"m.m.m.m.m.m.m.m.m.m.2 6 : X l D H G G G G G G T D l = : 6 2 m.m.m.m.m.m.m.m.m.m.",
"m.m.m.m.m.m.m.m.m.m.m.7 0 - 0 z x h x x h c m m z 9 ; 0 7 m.m.m.m.m.m.m.m.m.m.m.",
"m.m.m.m.m.m.m.m.m.m.m.m.; ; ; - X X X X = = = = = : ; ; m.m.m.m.m.m.m.m.m.m.m.m.",
"m.m.m.m.m.m.m.m.m.m.m.m.m.; l ; : o o : 0 : o : : 0 : m.m.m.m.m.m.m.m.m.m.m.m.m.",
"m.m.m.m.m.m.m.m.m.m.m.m.m.m.: : 8 w w 7 : 8 7 q 7 8 m.m.m.m.m.m.m.m.m.m.m.m.m.m.",
"m.m.m.m.m.m.m.m.m.m.m.m.m.m.m.m.m.3 y 3 m.m.3 y 3 m.m.m.m.m.m.m.m.m.m.m.m.m.m.m.",
"m.m.m.m.m.m.m.m.m.m.m.m.m.m.m.m.m.m.e 2 m.m.u 2 m.m.m.m.m.m.m.m.m.m.m.m.m.m.m.m.",
"m.m.m.m.m.m.m.m.m.m.m.m.m.m.m.m.m.m.3 3 m.m.3 m.m.m.m.m.m.m.m.m.m.m.m.m.m.m.m.m.",
"m.m.m.m.m.m.m.m.m.m.m.m.m.m.m.m.m.m.m.m.m.m.m.m.m.m.m.m.m.m.m.m.m.m.m.m.m.m.m.m.",
"m.m.m.m.m.m.m.m.m.m.m.m.m.m.m.m.m.m.m.m.m.m.m.m.m.m.m.m.m.m.m.m.m.m.m.m.m.m.m.m.",
"m.m.m.m.m.m.m.m.m.m.m.m.m.m.m.m.m.m.m.m.m.m.m.m.m.m.m.m.m.m.m.m.m.m.m.m.m.m.m.m.",
"m.m.m.m.m.m.m.m.m.m.m.m.m.m.m.m.m.m.m.m.m.m.m.m.m.m.m.m.m.m.m.m.m.m.m.m.m.m.m.m.",
"m.m.m.m.m.m.m.m.m.m.m.m.m.m.m.m.m.m.m.m.m.m.m.m.m.m.m.m.m.m.m.m.m.m.m.m.m.m.m.m."
};
