/* XPM */
static char *result[] = {
/* columns rows colors chars-per-pixel */
"40 40 153 2 ",
"   c #00053A",
".  c #5D263E",
"X  c #6B373E",
"o  c #6B383F",
"O  c #031B44",
"+  c #0D2045",
"@  c #112247",
"#  c #172649",
"$  c #1A2849",
"%  c #222C4B",
"&  c #222F50",
"*  c #2F3851",
"=  c #313255",
"-  c #343D54",
";  c #313E5A",
":  c #003E62",
">  c #5B2740",
",  c #413C54",
"<  c #6E3D43",
"1  c #6A3F48",
"2  c #723D43",
"3  c #743F48",
"4  c #36475D",
"5  c #3D455B",
"6  c #39495F",
"7  c #284761",
"8  c #3D4B61",
"9  c #3D4F68",
"0  c #3F4760",
"q  c #40475D",
"w  c #434A5F",
"e  c #4D485B",
"r  c #564455",
"t  c #5A495C",
"y  c #61434F",
"u  c #6A414A",
"i  c #754346",
"p  c #754048",
"a  c #7D454B",
"s  c #444C63",
"d  c #494F63",
"f  c #524E62",
"g  c #485066",
"h  c #4B516C",
"j  c #575369",
"k  c #595F6F",
"l  c #585D72",
"z  c #6D5A6C",
"x  c #5D637A",
"c  c #656A77",
"v  c #6B707E",
"b  c #AA572B",
"n  c #AB5E3A",
"m  c #C26936",
"M  c #CE793D",
"N  c #84494D",
"B  c #904E4C",
"V  c #8F544C",
"C  c #864E56",
"Z  c #8B565A",
"A  c #825959",
"S  c #965555",
"D  c #AD6649",
"F  c #BD6E4E",
"G  c #B16747",
"H  c #AF6C54",
"J  c #AA6655",
"K  c #B66755",
"L  c #B76957",
"P  c #BA6C50",
"I  c #B66859",
"U  c #B7695A",
"Y  c #AD7D5D",
"T  c #B27853",
"R  c #B47158",
"E  c #9F7661",
"W  c #966B7B",
"Q  c #C26D40",
"!  c #CC7B4B",
"~  c #CE7B41",
"^  c #CA7C54",
"/  c #C67C5D",
"(  c #C47654",
")  c #CC825E",
"_  c #D28554",
"`  c #D2895E",
"'  c #D5875F",
"]  c #CC8565",
"[  c #D38A63",
"{  c #D08560",
"}  c #D29175",
"|  c #D1957D",
" . c #D99576",
".. c #E59D62",
"X. c #EDA463",
"o. c #F1A763",
"O. c #F4AB66",
"+. c #F9B067",
"@. c #FCB368",
"#. c #6C7186",
"$. c #717783",
"%. c #717689",
"&. c #777C89",
"*. c #747992",
"=. c #797E91",
"-. c #9B7182",
";. c #7B8090",
":. c #84899E",
">. c #8B919E",
",. c #8D92A5",
"<. c #9196A1",
"1. c #959BA4",
"2. c #999DA9",
"3. c #959AB1",
"4. c #9BA0A8",
"5. c #9EA3B7",
"6. c #9DA2B8",
"7. c #A0A5BA",
"8. c #A6ABBE",
"9. c #AEB3BA",
"0. c #CF9783",
"q. c #D69D87",
"w. c #DAA28C",
"e. c #D7AC9F",
"r. c #DDB6AA",
"t. c #DEBCB3",
"y. c #E2BDAF",
"u. c #E1BFB4",
"i. c #E5C5BA",
"p. c #AEB2C3",
"a. c #B1B6C6",
"s. c #B4B9C2",
"d. c #B7BCCC",
"f. c #BDC2C9",
"g. c #C1C8CF",
"h. c #C7CED8",
"j. c #CCD2DC",
"k. c #E7CBC2",
"l. c #ECD6D0",
"z. c #F1E2DE",
"x. c #D5DAE1",
"c. c #D9DEE5",
"v. c #DCE1E7",
"b. c #DEE3EA",
"n. c #E0E5EC",
"m. c #E3E8ED",
"M. c #F5EAE7",
"N. c #F8F0EE",
"B. c #E7ECF1",
"V. c #EEF4F8",
"C. c white",
"Z. c #FAF6F5",
"A. c None",
/* pixels */
"A.A.A.A.A.A.A.A.A.A.A.A.A.A.A.A.A.A.A.A.A.A.A.A.A.A.A.A.A.A.A.A.A.A.A.A.A.A.A.A.",
"A.A.A.A.A.A.A.A.A.A.A.A.A.A.A.A.A.A.A.A.A.A.A.A.A.A.A.A.A.A.A.A.A.A.A.A.A.A.A.A.",
"A.A.A.A.A.A.A.A.A.A.A.A.A.A.A.A.A.A.A.A.A.A.A.A.A.A.A.A.A.A.A.A.A.A.A.A.A.A.A.A.",
"A.A.A.A.A.A.A.A.A.A.A.A.A.A.A.A.A.A.A.A.A.A.A.A.A.A.A.A.A.A.A.A.A.A.A.A.A.A.A.A.",
"A.A.A.A.A.A.A.A.A.A.A.A.A.A.A.A.A.A.A.A.A.A.A.A.A.A.A.A.A.A.A.A.A.A.A.A.A.A.A.A.",
"A.A.A.A.A.A.A.A.A.A.A.A.A.A.A.A.A.A.A.A.A.A.A.A.A.A.A.A.A.A.A.A.A.A.A.A.A.A.A.A.",
"A.A.A.A.A.A.A.A.A.A.A.A.A.A.A.A.A.A.A.A.A.A.A.A.A.A.A.A.A.A.A.A.A.A.A.A.A.A.A.A.",
"A.A.A.A.A.A.A.A.A.A.A.A.A.A.A.A.A.A.A.A.A.A.A.A.A.A.A.A.A.A.A.A.A.A.A.A.A.A.A.A.",
"A.A.A.A.A.A.A.A.A.A.A.A.A.A.A.A.A.A.A.A.A.A.A.A.A.A.A.A.A.A.A.A.A.A.A.A.A.A.A.A.",
"A.A.A.A.A.A.A.A.A.A.A.A.A.A.A.A.A.A.A.A.A.A.A.A.A.A.A.A.A.A.A.A.A.A.A.A.A.A.A.A.",
"A.A.A.A.A.A.A.A.A.A.A.A.A.A.A.A.A.A.A.A.A.A.A.A.A.A.A.A.A.A.A.A.A.A.A.A.A.A.A.A.",
"A.A.A.A.A.A.A.A.A.A.A.A.A.A.A.A.A.A.A.A.A.A.A.A.A.A.A.A.A.A.A.A.A.A.A.A.A.A.A.A.",
"A.A.A.A.A.A.A.A.A.A.A.A.A.A.A.A.A.A.A.A.A.A.A.A.A.A.A.A.A.A.A.A.A.A.A.A.A.A.A.A.",
"w w w w w w s s w w 0 s w s s 8 r 2 2 < < 2 < r 0 w s s s w w w w 0 w w w w w s ",
"g g g d d s s s d d s d d d s 9 t p 3 p p p p t 9 g d s s s d d d s s s d g d d ",
"s w w 5 * $ O @ * - # $ - 4 7 : = . . . > . > = : 7 8 - $ # - * @ O # - 5 s w w ",
"w q w x =.<.4.1.;.%.<.,.#.z A E Y T T T T T T Y E A z #.>.1.%.;.1.4.<.=.c q q w ",
"w 5 w *.8.x.m.v.p.5.x.j.3.W F X.+.O.O.O.O.O.O.+.X.F W 3.h.x.6.p.c.m.x.8.*.w 5 s ",
"g w w h ,.c.V.B.d.5.c.j.6.-.F o.@.@.@.@.@.@.@.@.o.F -.6.j.v.5.a.n.V.c.<.h w s d ",
"w w w O c f.x.j.p.5.x.h.,.W P ..O.X.X.X.X.X.o.O...P W ,.h.v.5.a.n.c.d.c O w w w ",
"A.w g s g v $.$.;.p.b.f.l C K { _ M _ ) ~ _ ` [ ) U C l f.b.p.d.m.9.k d s g w A.",
"A.A.w s s &   @ #.,.s.3.4 N K F q.t.0.] r.e./ ( / U N - 4.a.;.3.s.&.  q s w A.A.",
"A.A.A.w d s q s w s 8 6 w Z U m i.C.r.| Z.z.) ! / I Z e 4 w s s w w w g w A.A.A.",
"A.A.A.A.A.A.s d d 5 4 - y S L m k.C.i.| C.M.) ! / U S y - 4 0 6 ; d s w A.A.A.A.",
"A.A.A.A.A.A.A.w w w 0 r o V J m y.N.r.} M.l.) ^ / J B 2 r 0 w w w w w A.A.A.A.A.",
"A.A.A.A.A.A.A.A.A.A.A.A.2 3 V (  .q.} [ q.q.` ' / V < < A.A.A.A.A.A.A.A.A.A.A.A.",
"A.A.A.A.A.A.A.A.A.A.A.A.p < i J G b D H b n H R J i < i A.A.A.A.A.A.A.A.A.A.A.A.",
"A.A.A.A.A.A.A.A.A.A.A.A.2 i < < i o < < 2 2 < < < i 2 < A.A.A.A.A.A.A.A.A.A.A.A.",
"A.A.A.A.A.A.A.A.A.A.A.A.A.u a p < o X < 2 < o X < a i A.A.A.A.A.A.A.A.A.A.A.A.A.",
"A.A.A.A.A.A.A.A.A.A.A.A.A.A.< 2 < u u 1 2 u u u 1 < A.A.A.A.A.A.A.A.A.A.A.A.A.A.",
"A.A.A.A.A.A.A.A.A.A.A.A.A.A.A.A.e f j e A.A.e j e A.A.A.A.A.A.A.A.A.A.A.A.A.A.A.",
"A.A.A.A.A.A.A.A.A.A.A.A.A.A.A.A.A.8 0 6 A.A.9 0 A.A.A.A.A.A.A.A.A.A.A.A.A.A.A.A.",
"A.A.A.A.A.A.A.A.A.A.A.A.A.A.A.A.A.A.w w A.A.w A.A.A.A.A.A.A.A.A.A.A.A.A.A.A.A.A.",
"A.A.A.A.A.A.A.A.A.A.A.A.A.A.A.A.A.A.A.A.A.A.A.A.A.A.A.A.A.A.A.A.A.A.A.A.A.A.A.A.",
"A.A.A.A.A.A.A.A.A.A.A.A.A.A.A.A.A.A.A.A.A.A.A.A.A.A.A.A.A.A.A.A.A.A.A.A.A.A.A.A.",
"A.A.A.A.A.A.A.A.A.A.A.A.A.A.A.A.A.A.A.A.A.A.A.A.A.A.A.A.A.A.A.A.A.A.A.A.A.A.A.A.",
"A.A.A.A.A.A.A.A.A.A.A.A.A.A.A.A.A.A.A.A.A.A.A.A.A.A.A.A.A.A.A.A.A.A.A.A.A.A.A.A.",
"A.A.A.A.A.A.A.A.A.A.A.A.A.A.A.A.A.A.A.A.A.A.A.A.A.A.A.A.A.A.A.A.A.A.A.A.A.A.A.A.",
"A.A.A.A.A.A.A.A.A.A.A.A.A.A.A.A.A.A.A.A.A.A.A.A.A.A.A.A.A.A.A.A.A.A.A.A.A.A.A.A.",
"A.A.A.A.A.A.A.A.A.A.A.A.A.A.A.A.A.A.A.A.A.A.A.A.A.A.A.A.A.A.A.A.A.A.A.A.A.A.A.A."
};
