/* XPM */
static char *result[] = {
/* columns rows colors chars-per-pixel */
"40 40 146 2 ",
"   c #000D3D",
".  c #570D25",
"X  c #6F1F27",
"o  c #6A2C2C",
"O  c #6F2028",
"+  c #65343E",
"@  c #6D3639",
"#  c #703030",
"$  c #71383B",
"%  c #0B1F43",
"&  c #0E2146",
"*  c #2A344B",
"=  c #333C57",
"-  c #323C59",
";  c #5D2742",
":  c #5E2942",
">  c #4F3746",
",  c #612D43",
"<  c #673743",
"1  c #6F3E43",
"2  c #703D41",
"3  c #324258",
"4  c #3A435B",
"5  c #3D4B61",
"6  c #3D4561",
"7  c #434A5F",
"8  c #564555",
"9  c #5A4656",
"0  c #5B4B5C",
"q  c #62434D",
"w  c #7C4946",
"e  c #724245",
"r  c #794B52",
"t  c #76515A",
"y  c #444B61",
"u  c #484F65",
"i  c #495166",
"p  c #4B536A",
"a  c #565C6B",
"s  c #575D72",
"d  c #765661",
"f  c #5C6270",
"g  c #596178",
"h  c #61677B",
"j  c #656A7F",
"k  c #7F6D7C",
"l  c #8F413E",
"z  c #AC533D",
"x  c #BB6737",
"c  c #C26938",
"v  c #834B45",
"b  c #834D48",
"n  c #8D5949",
"m  c #915D4A",
"M  c #9A5A4F",
"N  c #9A5B51",
"B  c #B15C43",
"V  c #B15E49",
"C  c #B2664E",
"Z  c #BB6D4A",
"A  c #BE734F",
"S  c #B46757",
"D  c #B87458",
"F  c #98636B",
"G  c #976E7E",
"H  c #97717F",
"J  c #C8784D",
"K  c #C27351",
"L  c #C67C5C",
"P  c #C77A57",
"I  c #D7843F",
"U  c #D98848",
"Y  c #CB815E",
"T  c #D68A5C",
"R  c #DC955E",
"E  c #DD9055",
"W  c #C88063",
"Q  c #D18966",
"!  c #DE9562",
"~  c #CD8B72",
"^  c #CF927B",
"/  c #D1957D",
"(  c #E5A061",
")  c #EAA362",
"_  c #F4AB66",
"`  c #F9B067",
"'  c #FDB468",
"]  c #646980",
"[  c #687085",
"{  c #727784",
"}  c #7C778B",
"|  c #787E95",
" . c #9C7485",
".. c #7E8492",
"X. c #81869C",
"o. c #958E9D",
"O. c #91959D",
"+. c #A7848D",
"@. c #B4959B",
"#. c #868CA4",
"$. c #878CA8",
"%. c #908EA5",
"&. c #8C90A6",
"*. c #8B90AA",
"=. c #9497A8",
"-. c #9196B0",
";. c #959CB3",
":. c #9A9FB7",
">. c #9BA1B8",
",. c #9BA4B4",
"<. c #BEA2A4",
"1. c #A8ADB5",
"2. c #A0A7BA",
"3. c #A1A5B5",
"4. c #B5B1B8",
"5. c #BAB8BE",
"6. c #D39B87",
"7. c #DDA48C",
"8. c #DDB2A2",
"9. c #DFBAAD",
"0. c #E2BCAF",
"q. c #E1BFB4",
"w. c #E5C3B7",
"e. c #A7ADC1",
"r. c #AFB7C7",
"t. c #B0B5C4",
"y. c #B9BFCD",
"u. c #B5BAC2",
"i. c #C0BDC1",
"p. c #BDC2C9",
"a. c #C5CCD8",
"s. c #CACFD8",
"d. c #CCD3DE",
"f. c #D1D6DC",
"g. c #EBD6D0",
"h. c #E7CBC2",
"j. c #F1E2DE",
"k. c #D6DBE2",
"l. c #D8DEE6",
"z. c #E3E9EF",
"x. c #F4EAE7",
"c. c #F7F0EE",
"v. c #ECF2F6",
"b. c white",
"n. c #FBF6F5",
"m. c None",
/* pixels */
"m.m.m.m.m.m.m.m.m.m.m.m.m.m.m.m.m.m.m.m.m.m.m.m.m.m.m.m.m.m.m.m.m.m.m.m.m.m.m.m.",
"m.m.m.m.m.m.m.m.m.m.m.m.m.m.m.m.m.m.m.m.m.m.m.m.m.m.m.m.m.m.m.m.m.m.m.m.m.m.m.m.",
"m.m.m.m.m.m.m.m.m.m.m.m.m.m.m.m.m.m.m.m.m.m.m.m.m.m.m.m.m.m.m.m.m.m.m.m.m.m.m.m.",
"m.m.m.m.m.m.m.m.m.m.m.m.m.m.m.m.m.m.m.m.m.m.m.m.m.m.m.m.m.m.m.m.m.m.m.m.m.m.m.m.",
"m.m.m.m.m.m.m.m.m.m.m.m.m.m.m.m.m.m.m.m.m.m.m.m.m.m.m.m.m.m.m.m.m.m.m.m.m.m.m.m.",
"m.m.m.m.m.m.m.m.m.m.m.m.m.m.m.m.m.m.m.m.m.m.m.m.m.m.m.m.m.m.m.m.m.m.m.m.m.m.m.m.",
"m.m.m.m.m.m.m.m.m.m.m.m.m.m.m.m.m.m.m.m.m.m.m.m.m.m.m.m.m.m.m.m.m.m.m.m.m.m.m.m.",
"m.m.m.m.m.m.m.m.m.m.m.m.m.m.m.m.m.m.m.m.m.m.m.m.m.m.m.m.m.m.m.m.m.m.m.m.m.m.m.m.",
"m.m.m.m.m.m.m.m.m.m.m.m.m.m.m.m.m.m.m.m.m.m.m.m.m.m.m.m.m.m.m.m.m.m.m.m.m.m.m.m.",
"m.m.m.m.m.m.m.m.m.m.m.m.m.m.m.m.m.m.m.m.m.m.m.m.m.m.m.m.m.m.m.m.m.m.m.m.m.m.m.m.",
"m.m.m.m.m.m.m.m.m.m.m.m.m.m.m.m.m.m.m.m.m.m.m.m.m.m.m.m.m.m.m.m.m.m.m.m.m.m.m.m.",
"m.m.m.m.m.m.m.m.m.m.m.m.m.m.m.m.m.m.m.m.m.m.m.m.m.m.m.m.m.m.m.m.m.m.m.m.m.m.m.m.",
"m.m.m.m.m.m.m.m.m.m.4 0 2 2 1 1 1 e 1 1 e 1 e 1 2 2 2 2 0 5 m.m.m.m.m.m.m.m.m.m.",
"m.m.m.m.m.m.m.m.m.y 7 9 # $ 1 , ; ; ; ; : : ; ; , 1 $ # 9 5 y m.m.m.m.m.m.m.m.m.",
"m.m.m.m.m.m.m.m.y p 4 a d r w n m m m m n m n m n v r d a 4 p y m.m.m.m.m.m.m.m.",
"m.m.m.m.m.m.m.7 y 4   g %. .C R ) ( ( ( ( ( ) ) ! C G %.s   4 y 7 m.m.m.m.m.m.m.",
"m.m.m.m.m.m.y u = a O.,.-. .A _ ' ' ' ' ' ' ' ' _ K  .-.>.O.a = u 7 m.m.m.m.m.m.",
"m.m.m.m.m.7 u 7 % { f.d.;. .Z ) ' _ _ _ _ _ _ ` ) Z G -.d.f.{ & y u 7 m.m.m.m.m.",
"m.m.m.m.m.7 u 7 ] %.t.a.a.@.B T E I E R U U ! ! T B @.a.a.t.&.j 7 u 7 m.m.m.m.m.",
"m.m.m.m.m.7 y 7 X.:.$.r.l.<.z K ~ 6.~ W 6./ L Y L B <.k.t.$.:.X.7 y 7 m.m.m.m.m.",
"m.m.m.m.m.7 y 7 | -.*.:.e.+.B c 9.c.8.~ x.g.Y J D V +.e.:.*.-.| y y 7 m.m.m.m.m.",
"m.m.m.m.m.7 4 y =.p.y.,.} F C c h.b.q.6.b.x.Y J L S F  .3.y.p.=.y 4 7 m.m.m.m.m.",
"m.m.m.m.m.7 = 7 u.z.z.u.e l S c w.b.9./ n.j.Y J L S v 2 u.z.z.u.7 - y m.m.m.m.m.",
"m.m.m.m.m.7 = 7 a.v.v.i.@ O N K 7.w.6.Q 0.8.T Y L N X @ i.v.v.p.7 = 7 m.m.m.m.m.",
"m.m.m.m.m.7 4 7 1.k.l.4.$ . w D A x K D x Z D L D w . 1 4.l.k.1.7 4 7 m.m.m.m.m.",
"m.m.m.m.m.7 p 7 f ..2.o.o o e w b l b b v b b b b e o o o.>...f 7 p 7 m.m.m.m.m.",
"m.m.m.m.m.m.y 7   y &.%.k t @ + + + + + + 1 + + < @ t k %.#.6 % 7 y m.m.m.m.m.m.",
"m.m.m.m.m.m.m.7 4 s &.>.;.k o e 1 e 1 1 1 e 1 1 1 o k ;.:.&.s 4 7 m.m.m.m.m.m.m.",
"m.m.m.m.m.m.m.i y i h #.,.{ > 8 8 0 0 9 m.q 8 0 8 > } >.#.h i y i m.m.m.m.m.m.m.",
"m.m.m.m.m.m.m.7 7 7 * j *.[ 3 5 5 5 5 5 m.m.5 u 5 3 ] %.j * 7 y 7 m.m.m.m.m.m.m.",
"m.m.m.m.m.m.m.m.y p 7 p f p 7 i 7 m.y 7 m.m.i i y 4 i s i 7 p y m.m.m.m.m.m.m.m.",
"m.m.m.m.m.m.m.m.m.7 7 y 3 y i p 7 m.m.7 m.m.7 7 i i 7 4 y 7 y m.m.m.m.m.m.m.m.m.",
"m.m.m.m.m.m.m.m.m.m.7 i 7 7 y i 7 m.m.m.m.m.m.7 i y 7 7 i 7 m.m.m.m.m.m.m.m.m.m.",
"m.m.m.m.m.m.m.m.m.m.m.m.m.m.m.m.m.m.m.m.m.m.m.m.m.m.m.m.m.m.m.m.m.m.m.m.m.m.m.m.",
"m.m.m.m.m.m.m.m.m.m.m.m.m.m.m.m.m.m.m.m.m.m.m.m.m.m.m.m.m.m.m.m.m.m.m.m.m.m.m.m.",
"m.m.m.m.m.m.m.m.m.m.m.m.m.m.m.m.m.m.m.m.m.m.m.m.m.m.m.m.m.m.m.m.m.m.m.m.m.m.m.m.",
"m.m.m.m.m.m.m.m.m.m.m.m.m.m.m.m.m.m.m.m.m.m.m.m.m.m.m.m.m.m.m.m.m.m.m.m.m.m.m.m.",
"m.m.m.m.m.m.m.m.m.m.m.m.m.m.m.m.m.m.m.m.m.m.m.m.m.m.m.m.m.m.m.m.m.m.m.m.m.m.m.m.",
"m.m.m.m.m.m.m.m.m.m.m.m.m.m.m.m.m.m.m.m.m.m.m.m.m.m.m.m.m.m.m.m.m.m.m.m.m.m.m.m.",
"m.m.m.m.m.m.m.m.m.m.m.m.m.m.m.m.m.m.m.m.m.m.m.m.m.m.m.m.m.m.m.m.m.m.m.m.m.m.m.m."
};
