/* XPM */
static char *result[] = {
/* columns rows colors chars-per-pixel */
"32 32 14 1 ",
"  c black",
". c #020202",
"X c #040404",
"o c #050404",
"O c gray3",
"+ c #0A0909",
"@ c #101010",
"# c #131212",
"$ c #1E1E1E",
"% c #434F65",
"& c #6F7F9F",
"* c #8895AF",
"= c #A6B0C4",
"- c None",
/* pixels */
"--------------------------------",
"--------------------------------",
"--------------------------------",
"--------------------------------",
"-------------******-------------",
"-------------******-------------",
"-------*****%******%*****-------",
"-------*****%======%*****-------",
"%*****%*****%&&&&&&%*****%*****%",
"%*****%=====%&&&&&&%=====%*****%",
"%*****%&&&&&%&&&&&&%&&&&&%*****%",
"%=====%&&&&&%&&&&&&%&&&&&%=====%",
"%&&&&&%&&&&&$@@@@@@@&&&&&%&&&&&%",
"%&&&&&$@@$$$@@@@$@@@@@@@@$&&&&&%",
"%&&&&&$@@@$@@@@@@@@@$##++@&&&&&%",
"%%%%%%$O@@@@@@@@@@@@@###+@%%%%%%",
"%=====$O@@+++++++@@@++##+@=====%",
"%&&&&&$O$+##+++#+@@@@@+#+@&&&&&%",
"%&&&&&$@+++#+oo++ @@@@+++@&&&&&%",
"%&&&&&@@+++##+     @@@@++@&&&&&%",
"%&&&&&OO+++#          @@+@&&&&&%",
"%%%%%%@@++            @@@@%%%%%%",
"%=====@@@@             @@@=====%",
"%&&&&&@@@@@@@           @@&&&&&%",
"%&&&&&@@+++@++          @@&&&&&%",
"%&&&&&@@++++++#         @@&&&&&%",
"%&&&&&@@++@+++###    $  @@&&&&&%",
"%%%%%%@@+++#++####       @%%%%%%",
"%=====@@++++++########   @=====%",
"%&&&&&@@oo..oo+#++++++   @&&&&&%",
"%&&&&&O@OOXX@@@@@@OO@@@@@@&&&&&%",
"%&&&&&                    &&&&&%"
};
